<?xml version="1.0" encoding="UTF-8"?>
<!DOCTYPE svg PUBLIC "-//W3C//DTD SVG 1.1//EN" "http://www.w3.org/Graphics/SVG/1.1/DTD/svg11.dtd">
<!-- Creator: CorelDRAW 2021.5 -->
<svg xmlns="http://www.w3.org/2000/svg" xml:space="preserve" width="6.26998in" height="2.63263in" version="1.1" style="shape-rendering:geometricPrecision; text-rendering:geometricPrecision; image-rendering:optimizeQuality; fill-rule:evenodd; clip-rule:evenodd"
viewBox="0 0 6458.9 2711.95"
 xmlns:xlink="http://www.w3.org/1999/xlink"
 xmlns:xodm="http://www.corel.com/coreldraw/odm/2003">
 <defs>
  <style type="text/css">
   <![CDATA[
    .fil0 {fill:#2B2A29;fill-rule:nonzero}
   ]]>
  </style>
 </defs>
 <g id="Layer_x0020_1">
  <metadata id="CorelCorpID_0Corel-Layer"/>
  <g id="_1598606587872">
   <g>
    <path class="fil0" d="M5566.78 754.34c-23.14,-4.06 -45.44,-2.79 -66.04,2.71 -15.11,4.02 -30.06,-6.65 -30.06,-22.27l0.11 -385.74 -380.49 -0.1c-14.1,-0.01 -24.99,-12.3 -23.35,-26.33 2.22,-19.15 0.79,-39.38 -5.18,-60.17 -16.06,-55.8 -63.98,-98.39 -121.35,-107.47 -95.15,-15.07 -177.25,58.05 -177.25,150.37 0,5.85 0.26,11.63 0.95,17.3 1.64,13.99 -9.3,26.21 -23.35,26.21l-380.54 -0.11 -0.27 1110.54 1110.51 0.31 0.15 -385.35c0,-15.69 14.9,-26.63 30.11,-22.61 12.37,3.32 25.36,5.11 38.78,5.11 89.61,0 161.18,-77.27 151.57,-168.8 -6.92,-66.57 -58.37,-121.91 -124.31,-133.59l0.01 -0.01zm-650.33 29.76c3.87,0 7.38,-3.63 10.53,-10.89 3.15,-7.26 6.66,-16.46 10.53,-27.59 3.87,-11.13 8.23,-23 13.08,-35.58 4.83,-12.59 10.77,-24.45 17.79,-35.59 7.02,-11.13 15.49,-20.33 25.41,-27.59 9.92,-7.26 21.67,-10.9 35.22,-10.9 12.59,0 25.29,2.06 38.13,6.17 12.82,4.11 24.69,10.04 35.58,17.79 10.9,7.75 19.73,17.43 26.51,29.05 6.78,11.62 10.16,25.18 10.16,40.67 0,15.01 -3.15,30.26 -9.44,45.75 -6.29,15.49 -14.28,30.98 -23.96,46.47 -9.68,15.49 -20.1,30.5 -31.22,45.02 -11.14,14.52 -21.54,28.2 -31.23,41.03 -9.68,12.83 -17.67,24.57 -23.96,35.22 -6.29,10.65 -9.44,19.61 -9.44,26.87 0,16.95 3.27,30.87 9.8,41.76 6.54,10.89 13.8,21.18 21.78,30.87 7.99,9.68 15.25,19.72 21.79,30.14 6.54,10.41 9.8,23.84 9.8,40.31 0,15.49 -3.75,29.05 -11.26,40.67 -7.51,11.62 -17.07,21.3 -28.69,29.05 -11.62,7.75 -24.45,13.56 -38.49,17.43 -14.04,3.87 -27.84,5.81 -41.39,5.81 -12.1,0 -25.9,-1.58 -41.39,-4.72 -15.49,-3.15 -30.01,-8.35 -43.57,-15.61 -13.56,-7.26 -24.93,-16.71 -34.13,-28.32 -9.2,-11.62 -13.8,-26.14 -13.8,-43.57 0,-11.62 2.06,-22.15 6.17,-31.59 4.11,-9.44 8.47,-18.76 13.08,-27.96 4.6,-9.2 8.95,-18.88 13.07,-29.05 4.11,-10.16 6.17,-21.54 6.17,-34.12 0,-8.72 -3.99,-19.25 -11.98,-31.59 -7.99,-12.34 -17.91,-26.02 -29.77,-41.03 -11.86,-15.01 -24.69,-30.86 -38.49,-47.57 -13.8,-16.7 -26.63,-33.41 -38.49,-50.11 -11.86,-16.71 -21.79,-33.28 -29.78,-49.75 -7.99,-16.46 -11.98,-31.95 -11.98,-46.48 0,-14.04 3.39,-26.99 10.16,-38.85 6.77,-11.86 15.25,-22.4 25.41,-31.59 10.17,-9.2 21.43,-16.34 33.77,-21.42 12.34,-5.08 23.84,-7.62 34.49,-7.62 14.04,0 26.03,3.87 35.95,11.62 9.92,7.75 18.52,17.55 25.79,29.41 7.26,11.86 13.44,24.69 18.52,38.49 5.08,13.8 9.44,26.63 13.06,38.49 3.63,11.86 7.02,21.67 10.17,29.41 3.15,7.75 6.65,11.62 10.52,11.62l0.02 0z"/>
    <path class="fil0" d="M4438.5 756.94c-18.21,-5.07 -35.79,-6.23 -52.57,-4.6 -13.84,1.35 -25.78,-9.51 -25.78,-23.42l0.08 -380.17 -1110.53 -0.3 -0.31 1110.57 380.17 0.07c13.92,0 24.78,11.99 23.43,25.82 -1.67,16.78 -0.5,34.37 4.56,52.57 18.87,68.11 82.88,116.73 153.5,113.84 81.18,-3.33 146,-70.2 146,-152.22 0,-4.68 -0.19,-9.28 -0.65,-13.84 -1.32,-13.95 9.39,-26.05 23.42,-26.05l380.17 0.08 0.08 -380.12c0,-14.03 12.14,-24.74 26.09,-23.42 4.56,0.47 9.17,0.69 13.84,0.69 82.03,0 148.94,-64.74 152.3,-145.92 2.94,-70.66 -45.65,-134.68 -113.76,-153.57l-0.02 0.02zm-846.62 290.05c0,-30.5 1.09,-62.21 3.27,-95.13 2.18,-32.92 5.57,-65.24 10.16,-96.95 4.61,-31.72 10.78,-61.97 18.52,-90.78 7.75,-28.81 17.43,-54.34 29.05,-76.62 6.79,-13.08 13.8,-23.6 21.06,-31.59 7.26,-7.99 14.77,-14.28 22.51,-18.88 7.75,-4.6 15.49,-7.75 23.24,-9.44 7.75,-1.7 15.49,-2.54 23.24,-2.54 10.17,0 21.43,1.09 33.77,3.27 12.34,2.18 22.4,6.66 30.14,13.44 6.77,6.29 13.31,17.19 19.6,32.68 6.29,15.49 12.35,33.16 18.16,53.01 5.81,19.85 11.38,40.3 16.71,61.37 5.33,21.06 10.41,40.43 15.25,58.1 4.84,17.67 9.56,32.2 14.16,43.57 4.6,11.38 8.84,17.07 12.71,17.07 3.87,0 6.77,-1.46 8.71,-4.36 1.94,-2.91 3.39,-6.41 4.36,-10.54 0.97,-4.11 1.45,-8.23 1.45,-12.34 0,-4.12 0,-7.39 0,-9.8 0,-29.05 -2.42,-57.85 -7.26,-86.42 -4.84,-28.57 -7.26,-57.37 -7.26,-86.42 0,-8.72 0.72,-18.64 2.18,-29.77 1.45,-11.14 5.57,-19.85 12.34,-26.15 9.2,-8.23 21.3,-13.92 36.31,-17.07 15.01,-3.15 28.32,-4.72 39.94,-4.72 8.72,0 17.91,0.72 27.59,2.18 9.68,1.45 18.88,3.99 27.59,7.62 8.72,3.63 16.34,8.47 22.88,14.52 6.54,6.05 11.26,13.92 14.17,23.6 8.23,29.53 13.55,60.63 15.98,93.31 2.42,32.68 3.63,64.27 3.63,94.77 0,19.36 -0.85,43.2 -2.54,71.53 -1.7,28.32 -4.48,57.25 -8.35,86.78 -3.87,29.53 -9.08,57.85 -15.61,84.97 -6.54,27.11 -14.65,49.14 -24.33,66.08 -12.59,21.3 -32.19,31.95 -58.82,31.95 -23.72,0 -44.9,-4.96 -63.54,-14.88 -18.64,-9.92 -35.1,-22.27 -49.38,-37.04 -14.28,-14.77 -26.63,-30.86 -37.04,-48.29 -10.41,-17.43 -19.36,-33.52 -26.87,-48.29 -7.5,-14.77 -13.92,-27.11 -19.24,-37.03 -5.33,-9.92 -10.16,-14.89 -14.52,-14.89 -6.78,0 -11.02,2.66 -12.71,7.99 -1.7,5.33 -2.54,10.41 -2.54,15.25 0,9.68 0.85,19.37 2.54,29.05 1.7,9.68 3.63,19.37 5.81,29.05 2.18,9.68 4.12,19.36 5.81,29.05 1.7,9.68 2.54,19.37 2.54,29.05 0,8.23 -0.85,15.98 -2.54,23.24 -1.69,7.26 -5.69,13.56 -11.98,18.88 -5.81,5.33 -12.95,9.92 -21.42,13.8 -8.48,3.87 -17.43,7.15 -26.87,9.81 -9.44,2.66 -18.88,4.6 -28.32,5.81 -9.44,1.21 -18.03,1.82 -25.79,1.82 -6.77,0 -14.04,-0.48 -21.78,-1.46 -7.75,-0.97 -14.89,-2.9 -21.43,-5.81 -6.54,-2.91 -12.23,-6.78 -17.07,-11.62 -4.83,-4.85 -7.99,-11.38 -9.44,-19.61 -3.87,-20.33 -6.29,-41.03 -7.26,-62.09 -0.97,-21.06 -1.46,-41.75 -1.46,-62.09l-0.02 0.01z"/>
    <path class="fil0" d="M3336.08 757.51c-20.8,-5.99 -41.05,-7.38 -60.18,-5.18 -14.03,1.59 -26.32,-9.24 -26.32,-23.38l0.11 -380.51 -380.52 -0.1c-14.12,0 -24.97,-12.29 -23.36,-26.32 2.2,-19.14 0.82,-39.38 -5.15,-60.17 -16.05,-55.8 -63.98,-98.39 -121.33,-107.47 -95.16,-15.07 -177.27,58.04 -177.3,150.37 -0.01,5.85 0.34,11.62 0.99,17.29 1.61,14 -9.29,26.22 -23.38,26.22l-331.26 -0.09c-27.21,-0.01 -49.26,22.05 -49.28,49.25l-0.28 1012.01c-0.01,27.22 22.04,49.28 49.26,49.28l330.9 0.08c13.91,0.03 24.76,11.98 23.41,25.82 -1.64,16.77 -0.48,34.36 4.57,52.57 17.48,63.13 88.05,116.54 153.5,113.84 81.19,-3.32 145.98,-70.2 146,-152.18 0.01,-4.68 -0.22,-9.32 -0.66,-13.88 -1.33,-13.96 9.39,-26.05 23.42,-26.05l380.15 0.11 0.11 -380.55c0,-14.06 12.22,-24.97 26.21,-23.34 5.67,0.65 11.44,1 17.31,1 92.31,0.03 165.48,-82.06 150.44,-177.23 -9.04,-57.32 -51.6,-105.3 -107.38,-121.38l0 0.01zm-712.82 -102.68c0.97,-7.75 4.23,-14.52 9.8,-20.33 5.57,-5.81 12.46,-10.66 20.69,-14.52 8.23,-3.87 17.43,-6.78 27.59,-8.72 10.17,-1.93 20.34,-2.9 30.5,-2.9 17.91,0 34.25,2.9 49.02,8.71 14.77,5.81 23.84,14.77 27.23,26.87 6.29,21.78 12.7,46.6 19.24,74.44 6.53,27.83 12.83,57.25 18.88,88.23 6.05,30.99 11.86,62.57 17.43,94.77 5.57,32.2 10.53,63.43 14.89,93.68 4.36,30.26 7.99,58.7 10.9,85.33 2.9,26.63 4.6,49.62 5.08,68.99 0.48,11.14 -3.15,21.06 -10.9,29.77 -7.75,8.72 -17.91,16.09 -30.5,22.14 -12.59,6.05 -26.87,10.65 -42.84,13.8 -15.97,3.15 -31.95,4.72 -47.93,4.72 -23.24,0 -44.3,-3.63 -63.18,-10.9 -18.88,-7.26 -30.74,-18.64 -35.58,-34.12 -4.36,-14.52 -8.23,-34.5 -11.62,-59.91 -3.39,-25.41 -6.29,-53.98 -8.72,-85.69 -2.42,-31.71 -4.36,-65.24 -5.81,-100.58 -1.46,-35.34 -2.18,-69.96 -2.18,-103.85 0,-33.88 0.6,-65.6 1.82,-95.13 1.21,-29.53 3.27,-54.46 6.17,-74.8l0.02 -0z"/>
    <path class="fil0" d="M2228.42 757.51c-20.78,-5.99 -41.01,-7.38 -60.17,-5.18 -14.03,1.59 -26.32,-9.24 -26.31,-23.38l0.1 -380.51 -380.51 -0.1c-14.13,0 -24.97,-12.29 -23.36,-26.32 2.21,-19.14 0.83,-39.38 -5.15,-60.17 -16.05,-55.8 -63.98,-98.39 -121.33,-107.47 -95.16,-15.07 -177.28,58.04 -177.3,150.37 -0.01,5.85 0.35,11.62 1,17.29 1.61,14 -9.3,26.22 -23.38,26.22l-331.26 -0.09c-27.2,-0.01 -49.27,22.05 -49.28,49.25l-0.27 1012.01c-0.01,27.22 22.05,49.28 49.25,49.28l330.9 0.08c13.92,0.03 24.77,11.98 23.41,25.82 -1.65,16.77 -0.48,34.36 4.57,52.57 17.48,63.13 88.06,116.54 153.5,113.84 81.19,-3.32 145.98,-70.2 146.01,-152.18 0,-4.68 -0.23,-9.32 -0.66,-13.88 -1.34,-13.96 9.38,-26.05 23.41,-26.05l380.15 0.11 0.11 -380.55c0,-14.06 12.23,-24.97 26.22,-23.34 5.67,0.65 11.45,1 17.3,1 92.31,0.03 165.48,-82.06 150.46,-177.23 -9.06,-57.32 -51.61,-105.3 -107.41,-121.38l0 0.01zm-652.38 -157.87c45.02,0 91.5,3.99 139.43,11.98 47.93,7.99 92.47,21.18 133.62,39.57 8.72,3.87 15.85,9.2 21.43,15.98 5.57,6.77 10.05,14.28 13.44,22.52 3.39,8.23 5.69,16.94 6.9,26.14 1.21,9.2 1.82,18.16 1.82,26.87 0,8.72 -1.21,20.7 -3.63,35.95 -2.42,15.25 -6.41,30.26 -11.98,45.02 -5.57,14.77 -12.59,27.59 -21.06,38.49 -8.48,10.9 -18.52,16.34 -30.14,16.34 -10.16,0 -21.3,-2.79 -33.4,-8.35 -12.1,-5.57 -24.33,-11.74 -36.67,-18.52 -12.35,-6.78 -24.21,-12.95 -35.58,-18.52 -11.38,-5.57 -21.67,-8.35 -30.86,-8.35 -6.29,0 -11.5,2.06 -15.61,6.17 -4.11,4.12 -7.14,9.08 -9.08,14.88 -1.93,5.81 -3.27,11.98 -3.99,18.52 -0.72,6.54 -1.08,12.23 -1.08,17.07 0,21.78 3.75,42.96 11.26,63.54 7.5,20.57 15.73,40.91 24.69,61 8.95,20.1 17.19,40.3 24.69,60.64 7.51,20.33 11.26,41.39 11.26,63.17 0,19.37 -4.23,35.83 -12.71,49.39 -8.47,13.55 -19.6,24.57 -33.4,33.04 -13.8,8.47 -29.05,14.52 -45.75,18.15 -16.71,3.63 -33.52,5.45 -50.47,5.45 -17.43,0 -34.85,-1.94 -52.29,-5.81 -17.43,-3.87 -33.16,-10.17 -47.2,-18.88 -14.04,-8.71 -25.41,-20.09 -34.13,-34.13 -8.71,-14.04 -13.07,-31.22 -13.07,-51.56 0,-20.82 3.26,-41.15 9.8,-61 6.53,-19.85 13.68,-39.7 21.43,-59.55 7.75,-19.85 14.88,-39.82 21.42,-59.91 6.53,-20.09 9.8,-40.54 9.8,-61.37 0,-7.26 -0.48,-14.64 -1.46,-22.15 -0.97,-7.5 -2.9,-14.28 -5.81,-20.33 -2.9,-6.05 -7.02,-11.02 -12.34,-14.89 -5.33,-3.87 -12.59,-5.81 -21.79,-5.81 -9.68,0 -19.36,1.08 -29.05,3.26 -9.68,2.18 -19.24,4.72 -28.69,7.62 -9.44,2.91 -19,5.45 -28.69,7.62 -9.68,2.18 -19.61,3.26 -29.77,3.26 -13.55,0 -24.93,-4.48 -34.13,-13.44 -9.2,-8.96 -16.71,-19.97 -22.51,-33.04 -5.81,-13.08 -9.92,-26.87 -12.34,-41.39 -2.42,-14.52 -3.63,-27.11 -3.63,-37.77 0,-7.26 0.48,-14.64 1.46,-22.14 0.97,-7.51 2.9,-14.77 5.81,-21.79 2.9,-7.02 6.78,-13.19 11.62,-18.52 4.84,-5.33 11.14,-9.44 18.88,-12.34 40.67,-15.01 83.99,-25.78 129.99,-32.32 45.99,-6.53 90.53,-9.8 133.62,-9.8l-0.02 0.02z"/>
    <path class="fil0" d="M6125.93 608.7c0,0 30.58,125.59 -173.6,32.24 -79.88,-51.88 -211.75,-152.92 -93.93,-199.57 -17.27,-58.17 -23.29,-104.32 6.39,-191.8 0,0 18.02,-34.19 -10.14,-75.14 -28.21,-40.96 -35.24,-114.8 72.37,-111.25 107.51,3.55 121.56,116.72 91.02,189.24 0,0 40.04,-30.36 68.37,-114.74 28.27,-84.39 58.79,-169.66 145.71,-125.75 86.9,43.91 -33.28,216.79 -33.28,216.79l-35.82 72.12c0,0 213.7,-235.22 285.87,-117.56 0,0 38.78,89.05 -36.24,124.67 -75.02,35.62 -126.95,68.25 -155.11,96.35 0,0 191.72,-40.93 115.12,97.62 0,0 -44.91,106.49 -166.94,64.08 0,0 -15.54,49.79 -79.77,42.72l0 -0.03z"/>
    <path class="fil0" d="M6166.55 322.72c0,0 -259.66,719.25 -599.56,684.96l-66.46 -191.56c0,0 290.94,8.15 442.77,-429.42l136.99 -40.39 86.27 -23.59z"/>
    <path class="fil0" d="M1320.67 799.53c0,0 -563.88,516.46 -849.04,328.3l30.1 -200.55c0,0 253.9,142.36 591.51,-174.71l140.06 27.83 87.36 19.13 0 -0z"/>
    <path class="fil0" d="M454.06 889.64c0,0 137.32,-164.13 177.52,180.86 0,0 -13.39,257.9 -197.61,157.4 0,0 -103.82,123.93 -341.63,46.89 0,0 -107.18,-53.57 -20.1,-113.87 0,0 -150.72,-87.09 -16.75,-167.45 0,0 -127.27,-123.92 144.02,-164.12 0,0 88.75,-6.69 82.06,56.93l31.82 -8.38 -45.21 -98.8c0,0 -50.24,-123.92 107.18,-187.55 0,0 83.74,-1.66 60.29,93.77 0,0 -26.8,56.93 18.42,204.33l-0.01 0.01z"/>
    <g>
     <path class="fil0" d="M1425.59 1694.59c24.31,0 44.11,4.13 59.42,12.39 15.31,8.26 27.71,18.71 37.19,31.35 9.47,12.64 16.53,26.12 21.14,40.47 4.62,14.34 8.39,27.82 11.3,40.46 2.92,12.64 5.71,23.09 8.39,31.35 2.67,8.27 6.92,12.39 12.76,12.39 5.83,0 10.69,-4.13 14.58,-12.39 3.89,-8.26 8.14,-18.47 12.76,-30.62 4.62,-12.15 9.96,-25.52 16.04,-40.1 6.08,-14.58 13.98,-27.95 23.7,-40.1 9.72,-12.15 21.75,-22.35 36.09,-30.62 14.34,-8.27 31.95,-12.39 52.86,-12.39 25.27,0 47.51,7.9 66.71,23.7 19.2,15.8 35.6,36.21 49.21,61.24 13.61,25.03 24.91,53.34 33.9,84.94 9,31.59 16.17,63.07 21.51,94.42 5.35,31.35 9.11,61.12 11.3,89.31 2.19,28.19 3.29,51.52 3.29,69.99 0,32.08 -1.34,57.48 -4.01,76.18 -2.67,18.71 -8.74,32.81 -18.23,42.29 -9.47,9.48 -23.69,15.55 -42.65,18.22 -18.95,2.67 -44.96,4.01 -78.01,4.01 -18.95,0 -33.78,-6.68 -44.47,-20.05 -10.69,-13.36 -18.59,-29.89 -23.69,-49.58 -5.11,-19.68 -8.38,-41.19 -9.85,-64.52 -1.46,-23.33 -2.67,-44.84 -3.65,-64.52 -0.97,-19.69 -2.56,-36.21 -4.74,-49.58 -2.18,-13.37 -6.44,-20.05 -12.76,-20.05 -6.32,0 -12.03,4.13 -17.14,12.39 -5.1,8.27 -9.97,18.47 -14.58,30.62 -4.62,12.15 -9.48,25.4 -14.58,39.74 -5.11,14.34 -11.06,27.58 -17.86,39.74 -6.8,12.15 -14.58,22.36 -23.33,30.62 -8.75,8.27 -19.44,12.39 -32.08,12.39 -16.04,0 -29.28,-4.5 -39.74,-13.48 -10.45,-8.99 -19.2,-20.29 -26.25,-33.9 -7.05,-13.61 -12.63,-28.19 -16.77,-43.74 -4.12,-15.55 -7.89,-30.13 -11.3,-43.74 -3.4,-13.61 -6.81,-24.91 -10.21,-33.9 -3.4,-9 -7.77,-13.48 -13.12,-13.48 -5.35,0 -9.6,5.35 -12.76,16.04 -3.16,10.69 -5.83,24.3 -8.02,40.83 -2.19,16.53 -4.01,35 -5.47,55.42 -1.46,20.41 -3.29,40.34 -5.47,59.78 -2.18,19.44 -4.74,37.18 -7.65,53.22 -2.92,16.04 -6.81,28.19 -11.67,36.45 -4.37,6.81 -9.48,12.39 -15.31,16.77 -5.83,4.38 -12.15,7.77 -18.95,10.21 -6.81,2.43 -14.09,4.13 -21.87,5.1 -7.77,0.97 -15.31,1.46 -22.6,1.46 -10.69,0 -23.21,-1.21 -37.54,-3.65 -14.34,-2.43 -28.07,-6.44 -41.19,-12.03 -13.12,-5.59 -24.3,-13 -33.54,-22.24 -9.23,-9.23 -13.85,-20.66 -13.85,-34.27 0,-12.64 1.21,-25.88 3.65,-39.74 2.43,-13.85 4.62,-27.1 6.56,-39.74 3.41,-21.87 7.04,-45.08 10.93,-69.62 3.89,-24.55 8.38,-49.57 13.48,-75.1 5.11,-25.51 11.42,-50.79 18.95,-75.82 7.53,-25.04 16.53,-48.85 26.97,-71.45 10.45,-22.6 22.72,-43.39 36.83,-62.34 14.09,-18.95 30.62,-35 49.58,-48.12 11.18,-8.27 23.09,-14.09 35.73,-17.49 12.63,-3.41 26,-5.11 40.1,-5.11l0.01 -0.02z"/>
     <path class="fil0" d="M2349.71 1726.67c0.97,-7.77 4.26,-14.58 9.85,-20.42 5.59,-5.83 12.51,-10.69 20.78,-14.58 8.26,-3.89 17.49,-6.81 27.7,-8.75 10.21,-1.94 20.42,-2.92 30.62,-2.92 17.98,0 34.39,2.92 49.22,8.75 14.82,5.83 23.94,14.82 27.33,26.97 6.32,21.87 12.76,46.78 19.33,74.73 6.56,27.95 12.88,57.48 18.95,88.58 6.07,31.11 11.91,62.82 17.5,95.15 5.59,32.32 10.57,63.67 14.95,94.05 4.38,30.38 8.02,58.94 10.94,85.67 2.91,26.73 4.62,49.82 5.11,69.26 0.48,11.18 -3.16,21.15 -10.94,29.89 -7.77,8.74 -17.99,16.16 -30.62,22.24 -12.64,6.08 -26.98,10.69 -43.01,13.85 -16.04,3.16 -32.08,4.74 -48.12,4.74 -23.33,0 -44.47,-3.65 -63.43,-10.94 -18.95,-7.29 -30.86,-18.71 -35.73,-34.27 -4.37,-14.58 -8.27,-34.63 -11.67,-60.15 -3.41,-25.51 -6.32,-54.19 -8.75,-86.03 -2.43,-31.83 -4.38,-65.49 -5.83,-100.98 -1.46,-35.48 -2.19,-70.23 -2.19,-104.25 0,-34.03 0.6,-65.86 1.83,-95.51 1.21,-29.65 3.28,-54.68 6.2,-75.09l-0.01 -0.01z"/>
     <path class="fil0" d="M3012.1 2120.37c0,-30.62 1.09,-62.46 3.28,-95.51 2.19,-33.05 5.59,-65.49 10.21,-97.33 4.62,-31.84 10.82,-62.22 18.59,-91.14 7.77,-28.92 17.49,-54.56 29.16,-76.92 6.81,-13.12 13.85,-23.7 21.15,-31.72 7.29,-8.02 14.83,-14.33 22.6,-18.95 7.77,-4.62 15.55,-7.77 23.33,-9.48 7.77,-1.7 15.56,-2.55 23.33,-2.55 10.21,0 21.51,1.09 33.9,3.29 12.39,2.18 22.48,6.68 30.26,13.48 6.81,6.32 13.37,17.25 19.69,32.81 6.32,15.55 12.39,33.29 18.22,53.22 5.83,19.93 11.42,40.46 16.77,61.61 5.35,21.14 10.45,40.58 15.31,58.33 4.86,17.74 9.6,32.32 14.22,43.74 4.62,11.42 8.87,17.13 12.76,17.13 3.89,0 6.81,-1.45 8.76,-4.37 1.94,-2.92 3.4,-6.44 4.37,-10.57 0.97,-4.13 1.46,-8.27 1.46,-12.39 0,-4.13 0,-7.41 0,-9.84 0,-29.16 -2.43,-58.08 -7.29,-86.76 -4.86,-28.67 -7.29,-57.59 -7.29,-86.76 0,-8.75 0.73,-18.71 2.19,-29.89 1.46,-11.18 5.59,-19.93 12.39,-26.24 9.23,-8.27 21.39,-13.98 36.45,-17.14 15.07,-3.16 28.43,-4.74 40.1,-4.74 8.75,0 17.99,0.73 27.71,2.19 9.72,1.46 18.95,4.01 27.7,7.65 8.75,3.65 16.4,8.51 22.96,14.58 6.56,6.08 11.3,13.98 14.22,23.7 8.27,29.65 13.61,60.88 16.04,93.68 2.43,32.81 3.65,64.52 3.65,95.15 0,19.44 -0.85,43.38 -2.55,71.81 -1.7,28.44 -4.5,57.48 -8.39,87.13 -3.89,29.65 -9.11,58.08 -15.68,85.3 -6.56,27.22 -14.71,49.33 -24.42,66.34 -12.64,21.39 -32.32,32.08 -59.05,32.08 -23.82,0 -45.09,-4.99 -63.8,-14.95 -18.71,-9.97 -35.24,-22.36 -49.58,-37.19 -14.33,-14.82 -26.73,-30.98 -37.18,-48.48 -10.45,-17.49 -19.44,-33.66 -26.97,-48.48 -7.54,-14.83 -13.98,-27.22 -19.33,-37.19 -5.35,-9.96 -10.21,-14.95 -14.58,-14.95 -6.8,0 -11.06,2.67 -12.76,8.02 -1.7,5.35 -2.56,10.45 -2.56,15.31 0,9.72 0.85,19.44 2.56,29.16 1.7,9.72 3.65,19.44 5.83,29.16 2.19,9.72 4.14,19.44 5.83,29.16 1.7,9.72 2.55,19.44 2.55,29.16 0,8.27 -0.85,16.04 -2.55,23.33 -1.7,7.29 -5.71,13.61 -12.03,18.95 -5.83,5.35 -13,9.97 -21.51,13.85 -8.5,3.89 -17.5,7.17 -26.97,9.84 -9.48,2.67 -18.95,4.62 -28.43,5.83 -9.48,1.21 -18.1,1.83 -25.89,1.83 -6.81,0 -14.09,-0.48 -21.88,-1.46 -7.77,-0.97 -14.95,-2.92 -21.51,-5.83 -6.56,-2.92 -12.27,-6.8 -17.13,-11.66 -4.86,-4.86 -8.02,-11.42 -9.48,-19.69 -3.89,-20.41 -6.32,-41.19 -7.29,-62.34 -0.97,-21.15 -1.46,-41.92 -1.46,-62.34l0.02 -0.01z"/>
     <path class="fil0" d="M4424.7 2036.52c0,32.08 -5.59,61 -16.77,86.76 -11.18,25.76 -26.37,48.48 -45.57,68.17 -19.2,19.69 -41.55,36.57 -67.07,50.67 -25.52,14.09 -52.49,25.64 -80.93,34.63 -28.44,9 -57.48,15.56 -87.13,19.69 -29.65,4.14 -58.33,6.2 -86.03,6.2 -19.45,0 -36.45,-3.16 -51.04,-9.48 -14.58,-6.32 -24.78,-19.69 -30.62,-40.1 -4.86,-18.47 -9,-40.1 -12.39,-64.89 -3.41,-24.79 -6.2,-50.31 -8.38,-76.55 -2.19,-26.24 -3.65,-51.88 -4.38,-76.91 -0.73,-25.04 -1.1,-47.27 -1.1,-66.72 0,-17.01 0.37,-35.12 1.1,-54.31 0.73,-19.2 1.94,-38.64 3.65,-58.33 1.7,-19.69 4.25,-39.01 7.66,-57.96 3.4,-18.96 8.02,-36.45 13.85,-52.49 4.37,-11.66 10.45,-21.15 18.23,-28.43 7.77,-7.29 16.77,-13 26.98,-17.14 10.21,-4.12 21.02,-6.8 32.45,-8.02 11.42,-1.21 22.72,-1.82 33.9,-1.82 26.24,0 52.49,2.31 78.74,6.92 26.25,4.62 52.25,9.85 78.01,15.68 32.57,7.77 62.7,22.97 90.4,45.57 27.71,22.6 48.61,49.22 62.7,79.84 13.61,30.62 24.3,63.06 32.08,97.33 7.77,34.27 11.67,68.17 11.67,101.7l-0 0zm-309.12 -56.87c0,4.86 0.12,12.76 0.36,23.7 0.24,10.93 1.21,21.99 2.92,33.18 1.7,11.18 4.62,20.9 8.74,29.16 4.14,8.27 9.85,12.39 17.14,12.39 6.32,0 13.36,-1.59 21.14,-4.74 7.77,-3.16 15.44,-7.04 22.97,-11.66 7.54,-4.62 14.46,-9.6 20.78,-14.95 6.32,-5.35 11.42,-10.45 15.31,-15.31 3.89,-4.86 6.68,-10.21 8.38,-16.04 1.7,-5.83 2.56,-12.15 2.56,-18.95 0,-10.7 -2.56,-22 -7.65,-33.9 -5.11,-11.91 -11.91,-22.85 -20.42,-32.81 -8.5,-9.97 -18.23,-18.23 -29.16,-24.79 -10.94,-6.56 -22,-9.85 -33.18,-9.85 -7.3,0 -13,3.4 -17.14,10.21 -4.13,6.8 -7.17,14.95 -9.11,24.42 -1.95,9.48 -3.04,18.83 -3.28,28.07 -0.25,9.23 -0.37,16.53 -0.37,21.87l0.01 -0.01z"/>
     <path class="fil0" d="M5353.2 1852.07c0,12.64 -3.05,25.52 -9.12,38.64 -6.07,13.12 -13.85,24.91 -23.33,35.37 -9.48,10.45 -20.29,18.95 -32.45,25.51 -12.15,6.56 -24.55,9.84 -37.19,9.84 -14.58,0 -26.12,-4.01 -34.63,-12.03 -8.5,-8.02 -16.16,-16.89 -22.97,-26.62 -6.8,-9.72 -13.73,-18.59 -20.77,-26.61 -7.05,-8.02 -16.16,-12.03 -27.34,-12.03 -8.26,0 -16.53,2.3 -24.79,6.92 -8.26,4.62 -12.39,10.82 -12.39,18.59 0,8.27 5.23,16.17 15.68,23.7 10.45,7.53 23.69,15.43 39.74,23.7 16.04,8.27 33.18,17.38 51.4,27.34 18.22,9.96 35.36,21.51 51.4,34.63 16.04,13.12 29.28,28.07 39.74,44.84 10.45,16.77 15.68,36.09 15.68,57.96 0,23.33 -6.2,45.69 -18.59,67.08 -12.39,21.39 -29.41,40.34 -51.04,56.87 -21.63,16.53 -46.78,29.77 -75.46,39.74 -28.68,9.96 -59.3,14.95 -91.86,14.95 -27.71,0 -55.04,-3.77 -82.02,-11.3 -26.98,-7.53 -52.01,-18.59 -75.09,-33.18 -23.09,-14.58 -43.5,-32.57 -61.24,-53.95 -17.74,-21.39 -31.22,-45.93 -40.46,-73.64 -3.4,-10.21 -5.1,-18.95 -5.1,-26.24 0,-10.21 2.31,-21.03 6.92,-32.45 4.62,-11.42 10.69,-22 18.22,-31.72 7.54,-9.72 16.29,-17.74 26.25,-24.06 9.96,-6.32 20.29,-9.48 30.99,-9.48 12.63,0 25.64,4.5 39,13.48 13.37,9 26.37,18.95 39.01,29.89 12.63,10.93 24.66,21.02 36.09,30.25 11.42,9.23 21.51,13.85 30.26,13.85 22.85,0 34.27,-7.04 34.27,-21.15 0,-6.81 -5.71,-13.48 -17.14,-20.05 -11.42,-6.56 -25.64,-13.61 -42.65,-21.15 -17.01,-7.53 -35.48,-15.92 -55.41,-25.15 -19.93,-9.23 -38.39,-20.05 -55.41,-32.45 -17.01,-12.39 -31.23,-26.61 -42.65,-42.65 -11.42,-16.04 -17.14,-34.51 -17.14,-55.41 0,-22.35 6.44,-44.47 19.33,-66.34 12.88,-21.87 30.26,-41.44 52.13,-58.69 21.87,-17.25 47.03,-31.22 75.46,-41.92 28.43,-10.7 58.2,-16.04 89.31,-16.04 17.99,0 37.06,1.95 57.23,5.83 20.17,3.89 40.1,9.36 59.78,16.41 19.68,7.04 38.52,15.44 56.51,25.15 17.98,9.72 33.78,20.54 47.39,32.45 13.61,11.91 24.42,24.79 32.45,38.64 8.02,13.85 12.03,28.06 12.03,42.65l-0 0.02z"/>
    </g>
   </g>
   <path class="fil0" d="M1244.67 2484.17l-1.99 136.8c0,17.05 0.33,29.67 0.99,37.85 3.55,0.89 9.24,1.33 17.1,1.33 7.86,0 14.6,-0.67 20.25,-1.99 5.65,-1.33 10.41,-3.71 14.28,-7.14 3.87,-3.43 7.03,-6.64 9.46,-9.62 2.44,-2.98 4.53,-7.47 6.31,-13.45 2.66,-7.97 5.31,-18.49 7.97,-31.54 0,-0.22 1.61,-0.34 4.82,-0.34 3.2,0 8.3,1.49 15.27,4.49 6.97,2.98 10.46,5.26 10.46,6.81 0,17.05 -0.88,36.31 -2.66,57.78 -1.78,23.9 -3.93,35.86 -6.48,35.86 -2.54,0 -7.47,-0.94 -14.77,-2.82 -7.31,-1.88 -12.84,-3.6 -16.6,-5.15 -19.92,3.32 -45.71,5.09 -77.36,5.31l-16.61 0.34 -13.28 -1.66c-0.88,-0.89 -1.33,-10.63 -1.33,-29.22l1.33 -127.17c0,-25.9 -0.61,-39.68 -1.82,-41.34 -1.22,-1.66 -3.26,-5.86 -6.14,-12.62 -2.88,-6.75 -4.32,-11.12 -4.32,-13.12 0,-0.88 2.43,-2.1 7.31,-3.65 12.17,-4.43 22.91,-6.64 32.2,-6.64 9.3,0 14.22,0.34 14.78,0.99 0.55,0.67 0.83,7.31 0.83,19.92l0.02 0.02zm397.01 77.7l0.33 -35.86c0,-9.52 -0.22,-14.72 -0.67,-15.61 -2.43,-2.43 -5.59,-8.3 -9.46,-17.6 -3.87,-9.3 -5.81,-15.27 -5.81,-17.93 2.44,-2.43 41.29,-3.65 116.55,-3.65 18.59,0 27.89,0.44 27.89,1.33 0,4.65 -1.05,9.74 -3.16,15.27 -2.11,5.53 -4.32,9.96 -6.65,13.28 -2.32,3.32 -3.99,4.81 -4.98,4.49 -0.99,-0.34 -5.53,-0.5 -13.61,-0.5 -8.08,0 -19.32,0.5 -33.7,1.49 -14.39,1 -22.25,2.16 -23.58,3.49 -1.33,1.33 -1.99,13.5 -1.99,36.52l0.33 13.94c8.85,-0.22 21.91,-0.33 39.18,-0.33 17.26,0 25.9,0.33 25.9,1 0,7.97 -2.65,17.04 -7.97,27.23 -1.99,3.54 -3.2,5.2 -3.65,4.98 -5.76,0 -15.61,0.5 -29.55,1.49 -13.94,1 -22.03,2.16 -24.24,3.48 -0.22,0.22 -0.33,9.52 -0.33,27.89 0,18.37 0.55,28.11 1.66,29.22 3.54,3.54 22.58,5.31 57.11,5.31 13.94,0 23.35,-0.38 28.22,-1.16 4.87,-0.77 7.31,-1.05 7.31,-0.83 0,5.31 -1.78,11.62 -5.32,18.92 -3.54,7.31 -7.3,12.84 -11.29,16.6 -2.21,2.21 -22.08,3.32 -59.6,3.32 -37.51,0 -56.94,-0.89 -58.27,-2.66 -1.33,-1.11 -1.99,-11.79 -1.99,-32.04 0,-20.25 0.22,-41.68 0.67,-64.25 -3.99,-3.54 -7.8,-9.08 -11.46,-16.61 -3.65,-7.53 -5.48,-13.94 -5.48,-19.26 0,-0.22 5.86,-0.55 17.6,-0.99l0.01 0.02zm518.53 55.45c-3.1,-0.22 -12.62,-0.34 -28.56,-0.34 -15.94,0 -25.24,0.44 -27.89,1.33 -11.74,38.52 -18.37,66.29 -19.93,83.34 0,0.22 -2.71,0.34 -8.14,0.34 -5.43,0 -11.02,-0.34 -16.77,-0.99 -12.18,-1.77 -18.26,-3.32 -18.26,-4.65 0,-8.85 7.86,-34.65 23.57,-77.36 -2.88,-2.44 -6.2,-7.47 -9.96,-15.11 -3.76,-7.63 -5.65,-14 -5.65,-19.09 0,-0.22 9.19,-0.67 27.56,-1.33 18.15,-52.68 28.45,-80.46 30.88,-83.34 0.88,-0.67 4.86,-1.72 11.95,-3.16 7.09,-1.44 11.62,-2.16 13.61,-2.16l-0.67 -4.32c-0.44,-3.1 -0.94,-6.48 -1.5,-10.13 -0.55,-3.65 -0.83,-6.03 -0.83,-7.13 0,-0.67 1.88,-2 5.65,-3.99 10.84,-5.31 22.03,-7.97 33.54,-7.97 2.21,13.06 5.15,29.72 8.8,49.97 3.65,20.25 10.79,51.18 21.42,92.8 10.63,41.62 20.81,70.62 30.54,86.99l2.33 3.99c0,1.11 -2.1,2.99 -6.31,5.65 -4.21,2.66 -9.74,5.2 -16.6,7.63 -6.87,2.44 -13.17,3.65 -18.93,3.65 -1.99,0 -6.81,-12.56 -14.44,-37.69 -7.63,-25.12 -12.78,-44.11 -15.44,-56.94l0.01 0.01zm-7.96 -34.2c-7.53,-31.88 -11.62,-49.7 -12.29,-53.46 -0.67,-3.77 -1.22,-5.65 -1.66,-5.65 -0.44,0 -0.99,0.44 -1.66,1.33 -1.99,3.77 -5.7,12.84 -11.12,27.23 -5.42,14.39 -8.91,24.35 -10.46,29.88 24.57,0 36.97,0.22 37.19,0.67l-0.01 -0.01zm403.32 -3.99c26.12,-2.43 45.32,-8.58 57.61,-18.43 12.29,-9.86 18.43,-19.59 18.43,-29.22 0,-9.63 -4.76,-16.71 -14.28,-21.25 -9.52,-4.54 -21.59,-6.81 -36.19,-6.81 -7.75,0 -15.61,0.67 -23.58,1.99 -1.33,9.52 -2,34.09 -2,73.72l0.01 0.01zm3.66 114.56c-2.43,2.43 -7.31,4.37 -14.62,5.81 -7.3,1.44 -13.39,2.15 -18.25,2.15 -4.87,0 -9.08,-0.67 -12.62,-1.99l1.99 -191.58c-2.88,-3.55 -5.7,-9.41 -8.46,-17.6 -2.77,-8.19 -4.15,-13.22 -4.15,-15.11 0,-1.88 0.22,-3.1 0.67,-3.65 0.44,-0.55 7.47,-1.21 21.09,-1.99 13.61,-0.77 27.39,-1.16 41.34,-1.16 13.94,0 26.35,0.77 37.19,2.33 10.84,1.55 22.14,4.26 33.87,8.14 11.74,3.87 21.03,10.01 27.89,18.43 6.87,8.41 10.29,19.2 10.29,32.37 0,13.17 -4.65,25.4 -13.94,36.69 -9.3,11.29 -21.91,20.81 -37.85,28.56 0,3.55 6.98,19.43 20.92,47.65 13.94,28.22 25.01,46.43 33.2,54.62 0.22,0.22 0.34,0.61 0.34,1.16 0,0.55 -1.78,1.61 -5.32,3.16 -9.74,4.66 -20.26,6.98 -31.54,6.98l-8.3 -0.67c-4.87,-4.87 -13.33,-21.02 -25.4,-48.48 -12.07,-27.45 -18.76,-44.27 -20.09,-50.47 -2.66,1.55 -13.17,3.87 -31.54,6.97 0.44,44.49 1.55,70.39 3.32,77.7l-0.03 -0zm411.62 7.97c-4.43,0 -8.42,-0.67 -11.95,-1.99l0 -9.97c0,-33.86 1.11,-83.01 3.32,-147.42l1.33 -32.2c-2.88,-3.77 -5.7,-9.69 -8.46,-17.76 -2.77,-8.08 -4.15,-13.06 -4.15,-14.95 0,-1.88 0.22,-3.04 0.67,-3.48 0.44,-0.44 6.04,-1.05 16.77,-1.82 10.74,-0.77 21.81,-1.16 33.21,-1.16 11.4,0 17.76,0.55 19.09,1.66 39.19,87.65 59.16,132.37 59.93,134.14 0.77,1.77 1.38,2.66 1.83,2.66l1.33 -2.33 0 -9.3c0,-18.81 -0.61,-42.28 -1.82,-70.39 -1.22,-28.11 -2.49,-45.6 -3.82,-52.46 3.1,-2.88 8.8,-5.37 17.1,-7.47 8.3,-2.1 15.83,-3.16 22.58,-3.16 6.75,0 10.13,0.55 10.13,1.66 0,4.42 -0.77,9.62 -2.33,15.61 -1.55,5.97 -2.32,9.07 -2.32,9.29 -1.55,9.96 -2.33,25.51 -2.33,46.65 0,21.14 0.06,36.36 0.16,45.66 0.12,9.3 0.22,18.21 0.34,26.73 0.11,8.52 0.28,16.93 0.5,25.24 0.22,8.3 0.33,15.88 0.33,22.74 0.44,14.61 0.67,24.79 0.67,30.55l0.34 4.65c0,0.67 -1.44,1.55 -4.32,2.66 -8.63,3.54 -20.25,5.31 -34.86,5.31l-12.28 -1.33c-8.85,-25.02 -21.81,-56.56 -38.85,-94.63 -17.05,-38.08 -26.56,-58.61 -28.56,-61.59 -2,-2.99 -3.21,-4.49 -3.65,-4.49l-0.99 2.32c-0.88,6.2 -1.33,19.54 -1.33,40.01 0,20.48 0.5,42.78 1.5,66.91 0.99,24.13 2.16,39.29 3.48,45.49 -5.98,5.31 -16.83,7.97 -32.54,7.97l-0.02 0.01zm651.02 -117.87l-0.33 -4.65c6.2,0 12.28,1.05 18.27,3.16 5.98,2.11 10.41,4.15 13.28,6.14l4.65 2.98c0,30.1 -9.52,55.01 -28.56,74.71 6.2,8.63 13.17,16.05 20.92,22.24 0.22,0.22 0.34,0.44 0.34,0.67 0,2.21 -4.37,5.81 -13.12,10.8 -8.75,4.98 -16.33,7.47 -22.74,7.47 -7.53,-8.85 -12.84,-15.38 -15.93,-19.59 -14.17,8.2 -29.89,12.29 -47.15,12.29 -23.02,0 -41.73,-5.81 -56.12,-17.44 -14.39,-11.62 -21.58,-28.72 -21.58,-51.3 0,-33.87 16.38,-58.99 49.14,-75.37 -5.98,-15.72 -8.96,-28.67 -8.96,-38.85 0,-15.94 6.53,-28.05 19.59,-36.36 13.06,-8.3 28.11,-12.45 45.16,-12.45 11.29,0.67 17.38,1.44 18.27,2.33 3.32,6.42 4.98,15.05 4.98,25.9 0,2 -0.11,3.44 -0.33,4.32 -6.2,-0.89 -12.4,-1.33 -18.59,-1.33 -6.2,0 -12.4,1.66 -18.6,4.98 -6.2,3.32 -9.3,9.63 -9.3,18.93 0,9.3 5.87,26.35 17.6,51.13 11.73,24.79 23.47,45.6 35.2,62.42 4.65,-5.98 8.14,-14.22 10.46,-24.74 2.33,-10.51 3.48,-19.98 3.48,-28.39l0 -0zm-109.23 44.17c0,10.84 3.26,19.97 9.79,27.39 6.53,7.41 16,11.12 28.39,11.12 12.39,0 21.91,-2.1 28.56,-6.3 -16.16,-24.35 -29.67,-48.26 -40.51,-71.72 -6.2,2 -11.95,6.09 -17.26,12.28 -5.98,7.31 -8.96,16.38 -8.96,27.23l0 -0zm538.8 -48.81c49.58,-4.43 74.38,-20.25 74.38,-47.49 0,-8.85 -4.59,-15.77 -13.78,-20.74 -9.19,-4.98 -20.86,-7.47 -35.03,-7.47l-23.9 1.99c-1.11,7.97 -1.66,32.54 -1.66,73.72l-0.01 -0zm3.32 114.56c-2.43,2.43 -7.25,4.37 -14.44,5.81 -7.19,1.44 -13.33,2.15 -18.43,2.15 -5.09,0 -9.19,-0.67 -12.28,-1.99l1.99 -191.58c-3.1,-3.55 -6.03,-9.41 -8.8,-17.6 -2.76,-8.19 -4.15,-13.22 -4.15,-15.11 0,-1.88 0.28,-3.1 0.83,-3.65 0.55,-0.55 7.64,-1.21 21.25,-1.99 13.61,-0.77 27.33,-1.16 41.17,-1.16 13.84,0 26.18,0.77 37.02,2.33 10.84,1.55 21.97,4.37 33.37,8.47 11.4,4.09 20.48,10.41 27.23,18.93 6.75,8.52 10.13,19.42 10.13,32.71 0,13.28 -4.04,25.46 -12.12,36.52 -8.08,11.07 -17.88,19.48 -29.39,25.24 -23.91,12.17 -45.38,19.48 -64.42,21.91l-12.28 1.33c0.88,45.16 1.99,71.06 3.32,77.7l0 0zm442.84 -209.52l-2 136.8c0,17.04 0.34,29.66 0.99,37.85 3.54,0.89 9.24,1.33 17.1,1.33 7.86,0 14.6,-0.67 20.25,-2 5.65,-1.33 10.41,-3.71 14.28,-7.13 3.87,-3.44 7.03,-6.64 9.46,-9.63 2.43,-2.98 4.53,-7.47 6.31,-13.45 2.65,-7.97 5.31,-18.49 7.97,-31.54 0,-0.22 1.6,-0.33 4.81,-0.33 3.21,0 8.3,1.49 15.27,4.48 6.97,2.98 10.46,5.26 10.46,6.81 0,17.05 -0.89,36.31 -2.66,57.78 -1.77,23.91 -3.93,35.86 -6.48,35.86 -2.55,0 -7.47,-0.94 -14.78,-2.82 -7.3,-1.88 -12.84,-3.6 -16.6,-5.15 -19.92,3.32 -45.71,5.09 -77.36,5.31l-16.61 0.33 -13.28 -1.66c-0.89,-0.88 -1.33,-10.63 -1.33,-29.22l1.33 -127.17c0,-25.9 -0.61,-39.68 -1.82,-41.34 -1.22,-1.66 -3.26,-5.86 -6.14,-12.62 -2.88,-6.75 -4.32,-11.12 -4.32,-13.11 0,-0.89 2.43,-2.1 7.3,-3.65 12.17,-4.43 22.91,-6.64 32.21,-6.64 9.3,0 14.22,0.33 14.77,0.99 0.56,0.67 0.83,7.31 0.83,19.92l0.02 0.01zm487.66 133.15c-3.1,-0.22 -12.62,-0.33 -28.56,-0.33 -15.94,0 -25.24,0.44 -27.89,1.33 -11.74,38.52 -18.37,66.29 -19.93,83.34 0,0.22 -2.71,0.34 -8.14,0.34 -5.43,0 -11.02,-0.34 -16.77,-0.99 -12.17,-1.77 -18.26,-3.32 -18.26,-4.65 0,-8.85 7.86,-34.64 23.57,-77.36 -2.88,-2.43 -6.2,-7.47 -9.96,-15.11 -3.76,-7.64 -5.64,-14 -5.64,-19.1 0,-0.22 9.18,-0.67 27.55,-1.33 18.15,-52.68 28.45,-80.46 30.88,-83.34 0.88,-0.67 4.86,-1.72 11.95,-3.16 7.09,-1.44 11.62,-2.16 13.61,-2.16l-0.67 -4.32c-0.44,-3.1 -0.94,-6.48 -1.5,-10.13 -0.55,-3.65 -0.83,-6.03 -0.83,-7.13 0,-0.67 1.88,-1.99 5.65,-3.99 10.84,-5.31 22.03,-7.97 33.54,-7.97 2.21,13.06 5.15,29.72 8.8,49.97 3.65,20.25 10.79,51.19 21.42,92.81 10.63,41.61 20.81,70.61 30.54,86.99l2.33 3.99c0,1.11 -2.1,2.98 -6.31,5.65 -4.21,2.66 -9.74,5.2 -16.6,7.63 -6.87,2.43 -13.17,3.65 -18.93,3.65 -1.99,0 -6.81,-12.56 -14.44,-37.68 -7.63,-25.12 -12.78,-44.11 -15.44,-56.95l0.01 0.01zm-7.97 -34.2c-7.53,-31.88 -11.62,-49.69 -12.28,-53.46 -0.67,-3.76 -1.22,-5.65 -1.66,-5.65 -0.44,0 -0.99,0.44 -1.66,1.33 -2,3.76 -5.7,12.84 -11.12,27.23 -5.42,14.39 -8.91,24.35 -10.46,29.89 24.57,0 36.97,0.22 37.19,0.67l-0.01 -0.01zm376.43 118.54l0.99 -91.31 0 -4.31c-6.2,-8.63 -17.21,-27.17 -33.05,-55.62 -15.83,-28.44 -24.4,-43.55 -25.73,-45.32 -5.09,-5.09 -12.07,-7.63 -20.92,-7.63 -0.22,-0.44 -0.34,-1.66 -0.34,-3.65 0,-1.99 0.71,-5.14 2.16,-9.46 1.44,-4.32 2.43,-6.75 2.98,-7.31 0.55,-0.55 2.6,-1.16 6.14,-1.82 9.52,-1.77 19.14,-2.66 28.88,-2.66 9.74,0 14.89,0.22 15.44,0.67 0.55,0.44 3.6,6.53 9.13,18.27 17.26,36.74 29.99,61.32 38.19,73.72l0.67 0c1.33,-4.87 10.8,-22.46 28.39,-52.8 17.6,-30.32 27.83,-45.49 30.72,-45.49 6.64,0 13.28,0.88 19.92,2.66 6.64,1.77 11.85,3.71 15.61,5.81 3.77,2.1 5.53,3.82 5.31,5.14 -11.73,13.06 -27.28,34.03 -46.65,62.92 -19.37,28.88 -30.82,49.75 -34.37,62.59 -0.44,4.43 -0.67,18.7 -0.67,42.83 0,24.13 0.89,39.96 2.66,47.49 0,2.66 -3.55,4.65 -10.63,5.98 -7.09,1.33 -14,2 -20.76,2 -6.75,0 -11.45,-0.89 -14.11,-2.66l0.02 -0.01z"/>
  </g>
 </g>
</svg>
