<?xml version="1.0" encoding="UTF-8"?>
<!DOCTYPE svg PUBLIC "-//W3C//DTD SVG 1.1//EN" "http://www.w3.org/Graphics/SVG/1.1/DTD/svg11.dtd">
<!-- Creator: CorelDRAW 2021.5 -->
<svg xmlns="http://www.w3.org/2000/svg" xml:space="preserve" width="9.35121in" height="3.92639in" version="1.1" style="shape-rendering:geometricPrecision; text-rendering:geometricPrecision; image-rendering:optimizeQuality; fill-rule:evenodd; clip-rule:evenodd"
viewBox="0 0 9105.45 3823.21"
 xmlns:xlink="http://www.w3.org/1999/xlink"
 xmlns:xodm="http://www.corel.com/coreldraw/odm/2003">
 <defs>
  <style type="text/css">
   <![CDATA[
    .fil8 {fill:#FEFEFE;fill-rule:nonzero}
    .fil9 {fill:#434242;fill-rule:nonzero}
    .fil1 {fill:#F7C421;fill-rule:nonzero}
    .fil7 {fill:#F7C421;fill-rule:nonzero}
    .fil3 {fill:#E22381;fill-rule:nonzero}
    .fil5 {fill:#E22381;fill-rule:nonzero}
    .fil2 {fill:#603584;fill-rule:nonzero}
    .fil6 {fill:#603584;fill-rule:nonzero}
    .fil0 {fill:#00A0E3;fill-rule:nonzero}
    .fil4 {fill:#393185;fill-rule:nonzero}
   ]]>
  </style>
 </defs>
 <g id="Layer_x0020_1">
  <metadata id="CorelCorpID_0Corel-Layer"/>
  <g id="_1598605780368">
   <g>
    <path class="fil0" d="M7847.78 1063.46c-32.62,-5.72 -64.05,-3.93 -93.1,3.81 -21.3,5.67 -42.38,-9.37 -42.38,-31.39l0.15 -543.8 -536.39 -0.14c-19.88,-0.01 -35.23,-17.34 -32.92,-37.12 3.13,-26.99 1.12,-55.51 -7.3,-84.82 -22.64,-78.67 -90.19,-138.71 -171.08,-151.5 -134.13,-21.25 -249.87,81.83 -249.87,211.98 0,8.25 0.37,16.39 1.34,24.39 2.31,19.72 -13.11,36.95 -32.92,36.95l-536.48 -0.15 -0.38 1565.59 1565.54 0.44 0.22 -543.24c0,-22.12 21,-37.54 42.45,-31.88 17.43,4.68 35.75,7.2 54.67,7.2 126.32,0 227.23,-108.93 213.67,-237.97 -9.76,-93.84 -82.29,-171.87 -175.24,-188.33z"/>
    <path class="fil1" d="M6257.19 1067.12c-25.67,-7.14 -50.46,-8.78 -74.11,-6.49 -19.51,1.91 -36.35,-13.41 -36.35,-33.02l0.11 -535.95 -1565.58 -0.43 -0.44 1565.63 535.94 0.1c19.62,0 34.93,16.9 33.03,36.4 -2.35,23.65 -0.71,48.45 6.43,74.11 26.6,96.01 116.83,164.56 216.4,160.48 114.44,-4.69 205.82,-98.97 205.82,-214.6 0,-6.59 -0.27,-13.08 -0.92,-19.51 -1.86,-19.67 13.24,-36.73 33.02,-36.73l535.94 0.11 0.11 -535.88c0,-19.78 17.11,-34.88 36.78,-33.02 6.43,0.66 12.92,0.97 19.51,0.97 115.63,0 209.97,-91.27 214.7,-205.71 4.14,-99.61 -64.35,-189.86 -160.37,-216.5z"/>
    <path class="fil2" d="M4703.05 1067.93c-29.32,-8.45 -57.87,-10.4 -84.84,-7.3 -19.78,2.23 -37.1,-13.03 -37.1,-32.97l0.16 -536.42 -536.44 -0.14c-19.91,0 -35.2,-17.33 -32.93,-37.11 3.11,-26.99 1.16,-55.52 -7.26,-84.82 -22.62,-78.67 -90.2,-138.71 -171.05,-151.51 -134.15,-21.24 -249.91,81.83 -249.94,211.98 -0.01,8.25 0.47,16.38 1.4,24.37 2.27,19.73 -13.1,36.96 -32.96,36.96l-466.99 -0.13c-38.36,-0.01 -69.45,31.08 -69.47,69.43l-0.39 1426.69c-0.01,38.37 31.08,69.48 69.44,69.48l466.49 0.11c19.62,0.05 34.91,16.89 33,36.4 -2.32,23.65 -0.68,48.44 6.44,74.11 24.64,89 124.13,164.3 216.4,160.48 114.45,-4.68 205.8,-98.96 205.83,-214.54 0.01,-6.59 -0.31,-13.13 -0.93,-19.57 -1.88,-19.67 13.24,-36.73 33.01,-36.73l535.91 0.16 0.16 -536.48c0,-19.83 17.22,-35.2 36.95,-32.91 8,0.92 16.13,1.41 24.41,1.41 130.13,0.05 233.29,-115.68 212.08,-249.85 -12.75,-80.81 -72.74,-148.44 -151.38,-171.11z"/>
    <path class="fil3" d="M3141.52 1067.93c-29.3,-8.45 -57.82,-10.4 -84.82,-7.3 -19.78,2.23 -37.1,-13.03 -37.09,-32.97l0.14 -536.42 -536.43 -0.14c-19.92,0 -35.2,-17.33 -32.93,-37.11 3.11,-26.99 1.17,-55.52 -7.26,-84.82 -22.62,-78.67 -90.19,-138.71 -171.04,-151.51 -134.15,-21.24 -249.92,81.83 -249.95,211.98 -0.01,8.25 0.49,16.38 1.41,24.37 2.27,19.73 -13.11,36.96 -32.96,36.96l-466.99 -0.13c-38.35,-0.01 -69.46,31.08 -69.47,69.43l-0.38 1426.69c-0.02,38.37 31.08,69.48 69.43,69.48l466.49 0.11c19.62,0.05 34.92,16.89 33,36.4 -2.32,23.65 -0.67,48.44 6.44,74.11 24.65,89 124.14,164.3 216.4,160.48 114.45,-4.68 205.8,-98.96 205.84,-214.54 0,-6.59 -0.32,-13.13 -0.93,-19.57 -1.89,-19.67 13.23,-36.73 33,-36.73l535.92 0.16 0.15 -536.48c0,-19.83 17.24,-35.2 36.96,-32.91 7.99,0.92 16.13,1.41 24.38,1.41 130.14,0.05 233.29,-115.68 212.12,-249.85 -12.77,-80.81 -72.76,-148.44 -151.42,-171.11z"/>
    <path class="fil0" d="M8636.05 858.14c0,0 43.12,177.04 -244.73,45.45 -112.61,-73.13 -298.51,-215.58 -132.42,-281.34 -24.35,-82.01 -32.84,-147.06 9.01,-270.38 0,0 25.4,-48.2 -14.3,-105.93 -39.77,-57.74 -49.68,-161.84 102.03,-156.84 151.56,5 171.37,164.54 128.32,266.78 0,0 56.45,-42.8 96.38,-161.76 39.85,-118.96 82.89,-239.18 205.41,-177.28 122.51,61.9 -46.92,305.62 -46.92,305.62l-50.5 101.67c0,0 301.26,-331.61 403,-165.73 0,0 54.67,125.54 -51.09,175.76 -105.76,50.22 -178.97,96.22 -218.67,135.83 0,0 270.28,-57.7 162.29,137.62 0,0 -63.31,150.13 -235.35,90.34 0,0 -21.9,70.19 -112.46,60.22z"/>
    <path class="fil0" d="M8693.32 454.98c0,0 -366.06,1013.96 -845.24,965.63l-93.7 -270.06c0,0 410.15,11.49 624.2,-605.37l193.12 -56.94 121.62 -33.26z"/>
    <path class="fil3" d="M1861.81 1127.16c0,0 -794.94,728.08 -1196.94,462.82l42.44 -282.72c0,0 357.94,200.7 833.88,-246.3l197.45 39.24 123.16 26.97z"/>
    <path class="fil3" d="M640.12 1254.19c0,0 193.59,-231.38 250.25,254.97 0,0 -18.88,363.58 -278.58,221.89 0,0 -146.37,174.71 -481.62,66.1 0,0 -151.09,-75.52 -28.33,-160.53 0,0 -212.48,-122.77 -23.61,-236.07 0,0 -179.42,-174.7 203.04,-231.37 0,0 125.12,-9.43 115.68,80.26l44.86 -11.82 -63.74 -139.29c0,0 -70.83,-174.7 151.09,-264.4 0,0 118.05,-2.34 84.99,132.2 0,0 -37.78,80.26 25.98,288.05z"/>
    <g>
     <path class="fil4" d="M2009.73 2388.98c34.26,0 62.18,5.82 83.77,17.47 21.58,11.65 39.06,26.38 52.42,44.19 13.36,17.82 23.3,36.83 29.81,57.05 6.51,20.21 11.82,39.22 15.93,57.04 4.11,17.81 8.05,32.55 11.82,44.2 3.77,11.65 9.76,17.47 17.99,17.47 8.22,0 15.07,-5.82 20.56,-17.47 5.48,-11.65 11.48,-26.04 17.99,-43.17 6.51,-17.13 14.05,-35.97 22.61,-56.53 8.57,-20.56 19.7,-39.4 33.41,-56.53 13.7,-17.13 30.66,-31.52 50.88,-43.17 20.21,-11.65 45.05,-17.47 74.52,-17.47 35.63,0 66.98,11.14 94.04,33.41 27.06,22.27 50.19,51.05 69.38,86.34 19.19,35.29 35.12,75.2 47.79,119.74 12.68,44.54 22.79,88.91 30.32,133.1 7.54,44.2 12.85,86.17 15.93,125.91 3.09,39.74 4.63,72.63 4.63,98.67 0,45.22 -1.89,81.03 -5.65,107.4 -3.77,26.38 -12.33,46.25 -25.7,59.62 -13.36,13.36 -33.4,21.92 -60.13,25.69 -26.72,3.77 -63.38,5.65 -109.98,5.65 -26.72,0 -47.62,-9.42 -62.7,-28.26 -15.07,-18.84 -26.21,-42.14 -33.4,-69.89 -7.2,-27.75 -11.82,-58.07 -13.88,-90.96 -2.05,-32.89 -3.77,-63.21 -5.14,-90.96 -1.37,-27.75 -3.6,-51.05 -6.68,-69.89 -3.08,-18.84 -9.08,-28.26 -17.99,-28.26 -8.91,0 -16.96,5.82 -24.16,17.47 -7.19,11.65 -14.05,26.04 -20.56,43.17 -6.51,17.13 -13.36,35.8 -20.56,56.02 -7.2,20.21 -15.59,38.88 -25.18,56.02 -9.59,17.13 -20.56,31.52 -32.89,43.17 -12.34,11.65 -27.41,17.47 -45.22,17.47 -22.61,0 -41.28,-6.34 -56.02,-19.01 -14.73,-12.67 -27.06,-28.61 -37,-47.79 -9.94,-19.19 -17.81,-39.74 -23.64,-61.67 -5.82,-21.92 -11.13,-42.48 -15.93,-61.67 -4.8,-19.19 -9.6,-35.12 -14.39,-47.79 -4.8,-12.68 -10.96,-19.01 -18.5,-19.01 -7.54,0 -13.53,7.54 -17.99,22.61 -4.45,15.07 -8.22,34.26 -11.31,57.56 -3.09,23.3 -5.65,49.34 -7.71,78.12 -2.05,28.78 -4.63,56.87 -7.71,84.28 -3.08,27.41 -6.68,52.42 -10.79,75.03 -4.11,22.61 -9.59,39.74 -16.45,51.39 -6.16,9.6 -13.36,17.47 -21.58,23.64 -8.22,6.17 -17.13,10.96 -26.72,14.39 -9.59,3.42 -19.87,5.82 -30.83,7.19 -10.96,1.37 -21.59,2.06 -31.86,2.06 -15.07,0 -32.72,-1.71 -52.93,-5.14 -20.21,-3.43 -39.57,-9.08 -58.07,-16.96 -18.5,-7.88 -34.26,-18.33 -47.28,-31.35 -13.02,-13.02 -19.53,-29.12 -19.53,-48.31 0,-17.82 1.71,-36.49 5.14,-56.02 3.42,-19.53 6.51,-38.2 9.25,-56.02 4.8,-30.83 9.93,-63.55 15.41,-98.15 5.48,-34.61 11.82,-69.89 19.01,-105.87 7.2,-35.97 16.1,-71.6 26.72,-106.89 10.62,-35.29 23.3,-68.87 38.03,-100.73 14.73,-31.86 32.03,-61.16 51.91,-87.88 19.87,-26.72 43.17,-49.34 69.89,-67.84 15.76,-11.65 32.55,-19.87 50.37,-24.66 17.81,-4.8 36.66,-7.2 56.53,-7.2z"/>
     <path class="fil0" d="M3312.51 2434.2c1.37,-10.96 6,-20.56 13.88,-28.78 7.88,-8.22 17.64,-15.08 29.29,-20.56 11.65,-5.48 24.66,-9.59 39.06,-12.33 14.39,-2.74 28.78,-4.11 43.17,-4.11 25.35,0 48.48,4.11 69.38,12.33 20.9,8.22 33.75,20.9 38.54,38.03 8.91,30.83 17.99,65.95 27.24,105.35 9.25,39.4 18.16,81.03 26.72,124.88 8.56,43.85 16.79,88.56 24.67,134.13 7.88,45.57 14.9,89.76 21.07,132.59 6.17,42.82 11.31,83.08 15.42,120.77 4.11,37.68 6.51,70.23 7.2,97.64 0.68,15.76 -4.45,29.81 -15.42,42.14 -10.96,12.33 -25.36,22.78 -43.17,31.35 -17.81,8.56 -38.03,15.07 -60.64,19.53 -22.61,4.45 -45.22,6.68 -67.84,6.68 -32.89,0 -62.69,-5.14 -89.42,-15.42 -26.72,-10.28 -43.51,-26.38 -50.37,-48.31 -6.16,-20.56 -11.65,-48.82 -16.45,-84.79 -4.8,-35.97 -8.91,-76.4 -12.33,-121.28 -3.43,-44.88 -6.17,-92.33 -8.22,-142.35 -2.05,-50.02 -3.08,-99.01 -3.08,-146.97 0,-47.97 0.85,-92.85 2.57,-134.65 1.71,-41.8 4.63,-77.08 8.74,-105.86z"/>
     <path class="fil5" d="M4246.31 2989.22c0,-43.17 1.54,-88.05 4.62,-134.65 3.09,-46.59 7.88,-92.33 14.39,-137.21 6.51,-44.88 15.25,-87.71 26.21,-128.48 10.96,-40.77 24.66,-76.91 41.11,-108.43 9.59,-18.5 19.53,-33.41 29.81,-44.71 10.28,-11.31 20.9,-20.21 31.86,-26.72 10.96,-6.51 21.92,-10.96 32.89,-13.36 10.96,-2.4 21.93,-3.6 32.89,-3.6 14.39,0 30.32,1.54 47.79,4.63 17.47,3.08 31.69,9.42 42.66,19.01 9.59,8.91 18.84,24.32 27.75,46.25 8.91,21.92 17.47,46.93 25.69,75.03 8.22,28.09 16.1,57.04 23.64,86.85 7.54,29.81 14.73,57.22 21.58,82.23 6.85,25.01 13.53,45.57 20.04,61.67 6.51,16.1 12.51,24.15 17.99,24.15 5.48,0 9.6,-2.05 12.34,-6.16 2.74,-4.11 4.8,-9.08 6.16,-14.9 1.37,-5.82 2.06,-11.65 2.06,-17.47 0,-5.82 0,-10.45 0,-13.87 0,-41.11 -3.43,-81.88 -10.28,-122.31 -6.85,-40.42 -10.28,-81.19 -10.28,-122.31 0,-12.33 1.03,-26.38 3.09,-42.14 2.05,-15.76 7.88,-28.1 17.47,-37 13.02,-11.65 30.15,-19.7 51.39,-24.16 21.24,-4.45 40.08,-6.68 56.53,-6.68 12.34,0 25.36,1.03 39.06,3.09 13.7,2.05 26.72,5.65 39.06,10.79 12.33,5.14 23.12,11.99 32.37,20.56 9.25,8.56 15.93,19.7 20.04,33.41 11.65,41.8 19.19,85.82 22.61,132.07 3.43,46.25 5.14,90.96 5.14,134.13 0,27.41 -1.2,61.16 -3.6,101.24 -2.4,40.09 -6.34,81.03 -11.82,122.83 -5.48,41.8 -12.85,81.88 -22.1,120.25 -9.25,38.37 -20.73,69.55 -34.43,93.53 -17.82,30.15 -45.57,45.22 -83.25,45.22 -33.58,0 -63.56,-7.03 -89.93,-21.07 -26.38,-14.05 -49.68,-31.52 -69.89,-52.42 -20.21,-20.9 -37.68,-43.68 -52.42,-68.35 -14.73,-24.66 -27.41,-47.45 -38.03,-68.35 -10.62,-20.9 -19.7,-38.37 -27.24,-52.42 -7.54,-14.05 -14.39,-21.07 -20.56,-21.07 -9.59,0 -15.59,3.77 -17.99,11.31 -2.4,7.54 -3.6,14.73 -3.6,21.58 0,13.7 1.2,27.41 3.6,41.11 2.4,13.7 5.14,27.41 8.22,41.11 3.09,13.7 5.83,27.41 8.22,41.11 2.4,13.7 3.6,27.41 3.6,41.11 0,11.65 -1.2,22.61 -3.6,32.89 -2.4,10.28 -8.05,19.19 -16.96,26.72 -8.22,7.54 -18.33,14.05 -30.32,19.53 -11.99,5.48 -24.67,10.11 -38.03,13.87 -13.36,3.77 -26.72,6.51 -40.08,8.22 -13.36,1.71 -25.52,2.57 -36.49,2.57 -9.6,0 -19.87,-0.68 -30.84,-2.05 -10.96,-1.37 -21.07,-4.11 -30.32,-8.22 -9.25,-4.11 -17.3,-9.59 -24.15,-16.44 -6.85,-6.85 -11.31,-16.1 -13.36,-27.75 -5.48,-28.78 -8.91,-58.07 -10.28,-87.88 -1.37,-29.81 -2.05,-59.1 -2.05,-87.88z"/>
     <path class="fil6" d="M6237.73 2871.02c0,45.22 -7.88,85.99 -23.64,122.31 -15.76,36.32 -37.17,68.35 -64.24,96.1 -27.06,27.75 -58.58,51.56 -94.56,71.43 -35.97,19.87 -74,36.15 -114.09,48.82 -40.09,12.68 -81.03,21.93 -122.83,27.75 -41.8,5.83 -82.23,8.74 -121.28,8.74 -27.41,0 -51.39,-4.45 -71.95,-13.36 -20.56,-8.91 -34.94,-27.75 -43.17,-56.53 -6.85,-26.04 -12.68,-56.53 -17.47,-91.48 -4.8,-34.95 -8.74,-70.92 -11.82,-107.92 -3.09,-37 -5.14,-73.14 -6.17,-108.43 -1.03,-35.29 -1.54,-66.64 -1.54,-94.05 0,-23.98 0.51,-49.51 1.54,-76.57 1.03,-27.06 2.74,-54.47 5.14,-82.23 2.4,-27.75 6,-54.99 10.8,-81.71 4.8,-26.72 11.31,-51.39 19.53,-74 6.16,-16.44 14.73,-29.81 25.7,-40.08 10.96,-10.28 23.64,-18.33 38.03,-24.16 14.39,-5.82 29.63,-9.59 45.74,-11.31 16.1,-1.71 32.03,-2.57 47.79,-2.57 37,0 74,3.25 111,9.76 37,6.51 73.66,13.88 109.98,22.1 45.91,10.96 88.39,32.38 127.45,64.24 39.06,31.86 68.52,69.38 88.39,112.55 19.19,43.17 34.26,88.9 45.22,137.21 10.96,48.31 16.45,96.1 16.45,143.38zm-435.79 -80.17c0,6.85 0.17,17.99 0.51,33.41 0.34,15.41 1.71,31.01 4.11,46.77 2.4,15.76 6.51,29.46 12.33,41.11 5.83,11.65 13.88,17.47 24.16,17.47 8.91,0 18.84,-2.23 29.81,-6.68 10.96,-4.45 21.76,-9.93 32.38,-16.44 10.62,-6.51 20.38,-13.53 29.29,-21.07 8.91,-7.54 16.1,-14.73 21.58,-21.58 5.48,-6.85 9.42,-14.39 11.82,-22.61 2.4,-8.22 3.6,-17.13 3.6,-26.72 0,-15.08 -3.6,-31.01 -10.79,-47.79 -7.2,-16.79 -16.79,-32.21 -28.78,-46.25 -11.99,-14.05 -25.7,-25.7 -41.11,-34.95 -15.42,-9.25 -31.01,-13.88 -46.77,-13.88 -10.28,0 -18.33,4.8 -24.16,14.39 -5.82,9.59 -10.11,21.07 -12.85,34.43 -2.74,13.36 -4.28,26.55 -4.62,39.57 -0.35,13.02 -0.51,23.3 -0.51,30.83z"/>
     <path class="fil7" d="M7546.68 2610.99c0,17.81 -4.29,35.97 -12.85,54.47 -8.56,18.5 -19.53,35.12 -32.89,49.85 -13.36,14.73 -28.61,26.72 -45.74,35.97 -17.13,9.25 -34.61,13.87 -52.42,13.87 -20.56,0 -36.83,-5.65 -48.82,-16.96 -11.99,-11.31 -22.78,-23.81 -32.38,-37.52 -9.59,-13.7 -19.36,-26.21 -29.29,-37.52 -9.94,-11.31 -22.78,-16.96 -38.54,-16.96 -11.65,0 -23.3,3.25 -34.95,9.76 -11.65,6.51 -17.47,15.25 -17.47,26.21 0,11.65 7.37,22.79 22.1,33.41 14.73,10.62 33.4,21.76 56.02,33.41 22.61,11.65 46.77,24.5 72.46,38.54 25.69,14.05 49.85,30.32 72.46,48.82 22.61,18.5 41.28,39.57 56.02,63.21 14.73,23.64 22.1,50.87 22.1,81.71 0,32.89 -8.74,64.41 -26.21,94.56 -17.47,30.15 -41.46,56.87 -71.95,80.17 -30.49,23.3 -65.95,41.97 -106.38,56.02 -40.43,14.05 -83.6,21.07 -129.5,21.07 -39.06,0 -77.6,-5.31 -115.63,-15.93 -38.03,-10.62 -73.32,-26.21 -105.86,-46.77 -32.55,-20.56 -61.33,-45.91 -86.34,-76.06 -25.01,-30.15 -44.02,-64.75 -57.04,-103.81 -4.8,-14.39 -7.19,-26.72 -7.19,-37 0,-14.39 3.25,-29.64 9.76,-45.74 6.51,-16.1 15.07,-31.01 25.69,-44.71 10.62,-13.7 22.96,-25.01 37,-33.92 14.05,-8.91 28.61,-13.36 43.68,-13.36 17.81,0 36.15,6.34 54.99,19.01 18.84,12.68 37.17,26.72 54.99,42.14 17.81,15.41 34.77,29.63 50.87,42.65 16.1,13.02 30.32,19.53 42.66,19.53 32.21,0 48.31,-9.93 48.31,-29.81 0,-9.59 -8.05,-19.01 -24.15,-28.26 -16.1,-9.25 -36.15,-19.19 -60.13,-29.81 -23.98,-10.62 -50.02,-22.44 -78.11,-35.46 -28.1,-13.02 -54.13,-28.26 -78.12,-45.74 -23.98,-17.47 -44.02,-37.52 -60.13,-60.13 -16.1,-22.61 -24.16,-48.65 -24.16,-78.11 0,-31.52 9.08,-62.7 27.24,-93.53 18.16,-30.83 42.66,-58.42 73.49,-82.74 30.83,-24.32 66.29,-44.02 106.38,-59.1 40.08,-15.08 82.05,-22.61 125.9,-22.61 25.36,0 52.25,2.74 80.68,8.22 28.44,5.48 56.53,13.19 84.28,23.13 27.75,9.93 54.3,21.76 79.66,35.46 25.35,13.7 47.62,28.95 66.81,45.74 19.19,16.79 34.43,34.95 45.74,54.47 11.31,19.53 16.96,39.57 16.96,60.13z"/>
    </g>
    <path class="fil8" d="M2221.82 845.38c63.47,0 128.99,5.63 196.56,16.89 67.57,11.26 130.36,29.86 188.37,55.79 12.29,5.46 22.35,12.97 30.2,22.52 7.85,9.55 14.16,20.13 18.94,31.74 4.78,11.6 8.02,23.89 9.73,36.85 1.71,12.97 2.56,25.6 2.56,37.88 0,12.29 -1.71,29.18 -5.12,50.68 -3.41,21.5 -9.04,42.66 -16.89,63.47 -7.85,20.82 -17.75,38.9 -29.69,54.26 -11.95,15.36 -26.11,23.04 -42.49,23.04 -14.33,0 -30.03,-3.93 -47.09,-11.77 -17.06,-7.85 -34.29,-16.55 -51.7,-26.11 -17.4,-9.56 -34.13,-18.26 -50.16,-26.11 -16.04,-7.85 -30.54,-11.77 -43.51,-11.77 -8.87,0 -16.21,2.9 -22.01,8.7 -5.8,5.8 -10.07,12.8 -12.8,20.98 -2.73,8.19 -4.61,16.89 -5.63,26.11 -1.02,9.22 -1.53,17.24 -1.53,24.06 0,30.71 5.29,60.57 15.87,89.58 10.58,29 22.18,57.67 34.81,85.99 12.62,28.33 24.23,56.82 34.81,85.48 10.58,28.66 15.87,58.35 15.87,89.06 0,27.3 -5.97,50.51 -17.92,69.62 -11.94,19.11 -27.64,34.64 -47.09,46.58 -19.45,11.94 -40.95,20.47 -64.5,25.59 -23.55,5.12 -47.26,7.68 -71.15,7.68 -24.57,0 -49.14,-2.73 -73.71,-8.19 -24.57,-5.46 -46.75,-14.33 -66.54,-26.62 -19.79,-12.28 -35.83,-28.32 -48.12,-48.11 -12.28,-19.79 -18.42,-44.02 -18.42,-72.69 0,-29.35 4.6,-58.01 13.82,-85.99 9.21,-27.98 19.28,-55.97 30.2,-83.95 10.92,-27.98 20.98,-56.14 30.2,-84.46 9.21,-28.32 13.82,-57.16 13.82,-86.51 0,-10.24 -0.68,-20.64 -2.05,-31.22 -1.36,-10.58 -4.09,-20.13 -8.19,-28.66 -4.09,-8.53 -9.89,-15.53 -17.4,-20.99 -7.51,-5.46 -17.75,-8.19 -30.71,-8.19 -13.65,0 -27.3,1.53 -40.95,4.6 -13.65,3.07 -27.13,6.66 -40.44,10.75 -13.31,4.1 -26.78,7.68 -40.44,10.75 -13.65,3.07 -27.64,4.6 -41.97,4.6 -19.11,0 -35.15,-6.31 -48.12,-18.94 -12.97,-12.63 -23.55,-28.15 -31.73,-46.58 -8.19,-18.43 -13.99,-37.88 -17.4,-58.35 -3.41,-20.47 -5.12,-38.22 -5.12,-53.24 0,-10.24 0.68,-20.64 2.05,-31.22 1.36,-10.58 4.09,-20.82 8.19,-30.71 4.09,-9.9 9.56,-18.6 16.38,-26.11 6.82,-7.51 15.7,-13.31 26.62,-17.4 57.33,-21.16 118.41,-36.34 183.25,-45.56 64.84,-9.21 127.63,-13.82 188.37,-13.82z"/>
    <path class="fil8" d="M3698.16 923.19c1.36,-10.92 5.97,-20.47 13.82,-28.66 7.85,-8.19 17.57,-15.02 29.17,-20.47 11.6,-5.46 24.57,-9.56 38.9,-12.29 14.33,-2.73 28.67,-4.09 43,-4.09 25.25,0 48.28,4.09 69.1,12.28 20.82,8.19 33.61,20.82 38.39,37.88 8.87,30.71 17.91,65.69 27.13,104.94 9.21,39.24 18.09,80.71 26.62,124.39 8.53,43.68 16.72,88.21 24.57,133.6 7.85,45.39 14.85,89.41 20.99,132.06 6.14,42.66 11.26,82.75 15.36,120.29 4.09,37.54 6.48,69.95 7.16,97.26 0.68,15.7 -4.44,29.69 -15.36,41.97 -10.92,12.29 -25.25,22.69 -43,31.22 -17.75,8.53 -37.88,15.02 -60.4,19.45 -22.52,4.44 -45.04,6.66 -67.57,6.66 -32.76,0 -62.45,-5.12 -89.07,-15.36 -26.62,-10.24 -43.34,-26.28 -50.16,-48.11 -6.15,-20.47 -11.6,-48.63 -16.38,-84.46 -4.78,-35.83 -8.87,-76.1 -12.29,-120.8 -3.41,-44.7 -6.14,-91.97 -8.19,-141.79 -2.05,-49.82 -3.07,-98.62 -3.07,-146.4 0,-47.77 0.85,-92.48 2.56,-134.11 1.71,-41.63 4.61,-76.78 8.7,-105.45z"/>
    <path class="fil8" d="M5063.68 1476.01c0,-43 1.53,-87.7 4.61,-134.11 3.07,-46.41 7.85,-91.97 14.33,-136.67 6.49,-44.71 15.19,-87.36 26.11,-127.97 10.92,-40.61 24.57,-76.61 40.95,-108.01 9.56,-18.43 19.45,-33.27 29.69,-44.53 10.24,-11.26 20.82,-20.13 31.73,-26.62 10.92,-6.48 21.84,-10.92 32.76,-13.31 10.92,-2.39 21.84,-3.58 32.76,-3.58 14.33,0 30.2,1.54 47.6,4.61 17.4,3.07 31.57,9.38 42.49,18.94 9.55,8.87 18.77,24.23 27.64,46.07 8.87,21.84 17.4,46.75 25.6,74.73 8.19,27.98 16.04,56.82 23.55,86.51 7.51,29.69 14.67,56.99 21.5,81.9 6.82,24.91 13.48,45.39 19.96,61.42 6.49,16.04 12.46,24.06 17.92,24.06 5.46,0 9.55,-2.05 12.28,-6.14 2.73,-4.1 4.78,-9.04 6.15,-14.85 1.36,-5.8 2.05,-11.6 2.05,-17.4 0,-5.8 0,-10.41 0,-13.82 0,-40.95 -3.41,-81.56 -10.24,-121.83 -6.82,-40.27 -10.24,-80.88 -10.24,-121.83 0,-12.29 1.02,-26.28 3.07,-41.97 2.05,-15.7 7.85,-27.98 17.4,-36.86 12.97,-11.6 30.03,-19.62 51.19,-24.06 21.16,-4.44 39.93,-6.65 56.31,-6.65 12.29,0 25.25,1.02 38.9,3.07 13.65,2.05 26.62,5.63 38.9,10.75 12.29,5.12 23.04,11.94 32.25,20.47 9.22,8.53 15.87,19.62 19.97,33.27 11.6,41.63 19.11,85.48 22.52,131.55 3.41,46.07 5.12,90.6 5.12,133.6 0,27.3 -1.2,60.91 -3.58,100.84 -2.39,39.93 -6.31,80.7 -11.77,122.34 -5.46,41.63 -12.8,81.56 -22.01,119.78 -9.22,38.22 -20.65,69.28 -34.3,93.16 -17.75,30.03 -45.39,45.04 -82.92,45.04 -33.44,0 -63.3,-7 -89.58,-20.98 -26.28,-13.99 -49.48,-31.4 -69.61,-52.21 -20.13,-20.82 -37.54,-43.51 -52.21,-68.08 -14.67,-24.57 -27.3,-47.26 -37.88,-68.08 -10.58,-20.82 -19.62,-38.22 -27.13,-52.21 -7.51,-13.99 -14.33,-20.99 -20.47,-20.99 -9.55,0 -15.53,3.75 -17.91,11.26 -2.39,7.51 -3.58,14.67 -3.58,21.5 0,13.65 1.2,27.3 3.58,40.95 2.39,13.65 5.12,27.3 8.19,40.95 3.07,13.65 5.8,27.3 8.19,40.95 2.39,13.65 3.58,27.3 3.58,40.95 0,11.6 -1.2,22.52 -3.58,32.76 -2.39,10.24 -8.02,19.11 -16.89,26.62 -8.19,7.51 -18.26,13.99 -30.2,19.45 -11.95,5.46 -24.57,10.07 -37.88,13.82 -13.31,3.75 -26.62,6.48 -39.93,8.19 -13.31,1.71 -25.42,2.56 -36.35,2.56 -9.55,0 -19.79,-0.68 -30.71,-2.05 -10.92,-1.36 -20.99,-4.09 -30.2,-8.19 -9.22,-4.1 -17.24,-9.56 -24.06,-16.38 -6.82,-6.83 -11.26,-16.04 -13.31,-27.64 -5.46,-28.66 -8.87,-57.84 -10.24,-87.53 -1.36,-29.69 -2.05,-58.86 -2.05,-87.53z"/>
    <path class="fil8" d="M6930.96 1105.41c5.46,0 10.41,-5.12 14.85,-15.36 4.44,-10.24 9.38,-23.2 14.84,-38.9 5.46,-15.69 11.6,-32.42 18.43,-50.16 6.82,-17.75 15.18,-34.47 25.08,-50.17 9.89,-15.69 21.84,-28.66 35.83,-38.9 13.99,-10.24 30.54,-15.36 49.65,-15.36 17.75,0 35.66,2.9 53.75,8.7 18.08,5.8 34.8,14.16 50.16,25.08 15.36,10.92 27.81,24.57 37.37,40.95 9.56,16.38 14.33,35.49 14.33,57.33 0,21.16 -4.44,42.66 -13.31,64.5 -8.87,21.84 -20.13,43.68 -33.78,65.52 -13.65,21.84 -28.33,43 -44.02,63.47 -15.7,20.47 -30.37,39.75 -44.02,57.84 -13.65,18.09 -24.91,34.64 -33.78,49.65 -8.87,15.02 -13.31,27.64 -13.31,37.88 0,23.89 4.61,43.51 13.82,58.87 9.22,15.35 19.45,29.86 30.71,43.51 11.26,13.65 21.5,27.81 30.71,42.49 9.22,14.67 13.82,33.61 13.82,56.82 0,21.84 -5.29,40.95 -15.87,57.33 -10.58,16.38 -24.06,30.03 -40.44,40.95 -16.38,10.92 -34.47,19.11 -54.26,24.57 -19.79,5.46 -39.24,8.19 -58.35,8.19 -17.06,0 -36.51,-2.22 -58.35,-6.66 -21.84,-4.44 -42.31,-11.77 -61.42,-22.01 -19.11,-10.24 -35.15,-23.55 -48.11,-39.93 -12.97,-16.38 -19.45,-36.85 -19.45,-61.42 0,-16.38 2.9,-31.22 8.7,-44.53 5.8,-13.31 11.94,-26.45 18.43,-39.42 6.48,-12.97 12.62,-26.62 18.42,-40.95 5.8,-14.33 8.7,-30.37 8.7,-48.11 0,-12.29 -5.63,-27.13 -16.89,-44.53 -11.26,-17.4 -25.25,-36.68 -41.97,-57.84 -16.72,-21.16 -34.81,-43.51 -54.26,-67.06 -19.45,-23.55 -37.54,-47.1 -54.26,-70.64 -16.72,-23.55 -30.71,-46.92 -41.98,-70.13 -11.26,-23.2 -16.89,-45.04 -16.89,-65.52 0,-19.79 4.78,-38.05 14.33,-54.77 9.55,-16.72 21.5,-31.57 35.83,-44.53 14.33,-12.97 30.2,-23.04 47.6,-30.2 17.4,-7.16 33.61,-10.75 48.62,-10.75 19.79,0 36.69,5.46 50.68,16.38 13.99,10.92 26.11,24.74 36.35,41.46 10.24,16.72 18.94,34.81 26.11,54.26 7.16,19.45 13.31,37.54 18.42,54.26 5.12,16.72 9.9,30.54 14.33,41.46 4.44,10.92 9.38,16.38 14.84,16.38z"/>
   </g>
   <path class="fil9" d="M1754.67 3502.09l-2.81 192.86c0,24.03 0.47,41.82 1.4,53.36 5,1.25 13.03,1.87 24.11,1.87 11.08,0 20.59,-0.94 28.55,-2.81 7.96,-1.87 14.67,-5.23 20.13,-10.06 5.46,-4.84 9.91,-9.36 13.34,-13.57 3.43,-4.21 6.39,-10.53 8.89,-18.96 3.74,-11.24 7.49,-26.06 11.23,-44.47 0,-0.31 2.26,-0.47 6.79,-0.47 4.52,0 11.7,2.1 21.53,6.32 9.83,4.21 14.74,7.41 14.74,9.6 0,24.03 -1.25,51.18 -3.75,81.45 -2.5,33.7 -5.54,50.55 -9.13,50.55 -3.59,0 -10.53,-1.33 -20.83,-3.98 -10.3,-2.65 -18.1,-5.07 -23.4,-7.26 -28.08,4.68 -64.44,7.18 -109.06,7.49l-23.41 0.47 -18.72 -2.34c-1.25,-1.25 -1.87,-14.98 -1.87,-41.2l1.87 -179.28c0,-36.51 -0.86,-55.94 -2.57,-58.28 -1.72,-2.34 -4.6,-8.27 -8.66,-17.79 -4.06,-9.52 -6.09,-15.68 -6.09,-18.49 0,-1.25 3.43,-2.96 10.3,-5.15 17.16,-6.24 32.3,-9.36 45.4,-9.36 13.11,0 20.05,0.47 20.83,1.4 0.78,0.94 1.17,10.3 1.17,28.08zm559.69 109.54l0.47 -50.55c0,-13.42 -0.31,-20.75 -0.94,-22 -3.43,-3.43 -7.88,-11.7 -13.34,-24.81 -5.46,-13.11 -8.19,-21.53 -8.19,-25.28 3.43,-3.43 58.2,-5.15 164.3,-5.15 26.21,0 39.32,0.62 39.32,1.87 0,6.55 -1.48,13.73 -4.45,21.53 -2.97,7.8 -6.09,14.04 -9.37,18.72 -3.27,4.68 -5.62,6.79 -7.02,6.32 -1.4,-0.47 -7.8,-0.7 -19.19,-0.7 -11.39,0 -27.23,0.7 -47.51,2.1 -20.28,1.41 -31.36,3.04 -33.24,4.92 -1.87,1.87 -2.81,19.03 -2.81,51.49l0.47 19.66c12.48,-0.31 30.89,-0.47 55.23,-0.47 24.34,0 36.51,0.47 36.51,1.41 0,11.23 -3.74,24.03 -11.23,38.38 -2.81,5 -4.52,7.33 -5.15,7.02 -8.12,0 -22,0.7 -41.66,2.1 -19.66,1.41 -31.05,3.04 -34.17,4.91 -0.31,0.31 -0.47,13.42 -0.47,39.32 0,25.9 0.78,39.63 2.34,41.2 5,4.99 31.83,7.49 80.51,7.49 19.66,0 32.92,-0.54 39.79,-1.64 6.87,-1.09 10.3,-1.48 10.3,-1.17 0,7.49 -2.5,16.38 -7.49,26.68 -5,10.3 -10.3,18.1 -15.92,23.4 -3.12,3.12 -31.13,4.68 -84.02,4.68 -52.89,0 -80.28,-1.25 -82.15,-3.75 -1.87,-1.56 -2.81,-16.62 -2.81,-45.17 0,-28.55 0.31,-58.75 0.94,-90.58 -5.62,-5 -11,-12.8 -16.15,-23.41 -5.15,-10.61 -7.72,-19.66 -7.72,-27.15 0,-0.31 8.27,-0.78 24.81,-1.4zm731.01 78.17c-4.37,-0.31 -17.79,-0.47 -40.26,-0.47 -22.47,0 -35.58,0.62 -39.32,1.87 -16.54,54.3 -25.9,93.46 -28.09,117.49 0,0.31 -3.82,0.47 -11.47,0.47 -7.65,0 -15.53,-0.47 -23.64,-1.4 -17.16,-2.5 -25.74,-4.68 -25.74,-6.56 0,-12.48 11.08,-48.84 33.23,-109.06 -4.06,-3.43 -8.74,-10.53 -14.04,-21.3 -5.31,-10.76 -7.96,-19.74 -7.96,-26.92 0,-0.31 12.95,-0.94 38.85,-1.87 25.59,-74.27 40.1,-113.43 43.53,-117.49 1.25,-0.94 6.86,-2.42 16.85,-4.45 9.99,-2.03 16.38,-3.04 19.19,-3.04l-0.94 -6.09c-0.62,-4.37 -1.33,-9.13 -2.11,-14.28 -0.78,-5.15 -1.17,-8.5 -1.17,-10.06 0,-0.94 2.65,-2.81 7.96,-5.62 15.29,-7.49 31.05,-11.24 47.28,-11.24 3.12,18.41 7.26,41.9 12.41,70.45 5.15,28.55 15.21,72.16 30.19,130.83 14.98,58.67 29.33,99.55 43.06,122.64l3.28 5.62c0,1.56 -2.96,4.21 -8.89,7.96 -5.93,3.75 -13.73,7.33 -23.4,10.76 -9.68,3.43 -18.57,5.15 -26.68,5.15 -2.81,0 -9.6,-17.71 -20.36,-53.13 -10.76,-35.42 -18.02,-62.18 -21.77,-80.28zm-11.23 -48.21c-10.61,-44.94 -16.38,-70.06 -17.32,-75.36 -0.94,-5.31 -1.72,-7.96 -2.34,-7.96 -0.62,0 -1.4,0.62 -2.34,1.87 -2.81,5.31 -8.04,18.1 -15.68,38.39 -7.64,20.28 -12.56,34.33 -14.74,42.13 34.64,0 52.12,0.31 52.43,0.94zm568.59 -5.62c36.82,-3.43 63.89,-12.09 81.21,-25.98 17.32,-13.89 25.98,-27.62 25.98,-41.2 0,-13.57 -6.71,-23.56 -20.13,-29.96 -13.42,-6.4 -30.43,-9.6 -51.02,-9.6 -10.92,0 -22,0.94 -33.24,2.81 -1.87,13.42 -2.81,48.06 -2.81,103.92zm5.15 161.5c-3.43,3.43 -10.3,6.16 -20.6,8.19 -10.3,2.03 -18.88,3.04 -25.74,3.04 -6.87,0 -12.8,-0.94 -17.79,-2.81l2.81 -270.09c-4.06,-5 -8.04,-13.26 -11.93,-24.81 -3.9,-11.55 -5.85,-18.64 -5.85,-21.3 0,-2.65 0.31,-4.37 0.94,-5.15 0.62,-0.78 10.53,-1.71 29.73,-2.81 19.19,-1.09 38.62,-1.64 58.28,-1.64 19.66,0 37.14,1.09 52.43,3.28 15.29,2.19 31.21,6.01 47.75,11.47 16.54,5.46 29.64,14.12 39.32,25.98 9.68,11.86 14.51,27.07 14.51,45.64 0,18.57 -6.56,35.81 -19.66,51.72 -13.11,15.92 -30.89,29.33 -53.36,40.26 0,5 9.83,27.39 29.49,67.18 19.66,39.78 35.26,65.45 46.81,77 0.31,0.31 0.47,0.86 0.47,1.64 0,0.78 -2.5,2.26 -7.49,4.45 -13.73,6.56 -28.56,9.83 -44.47,9.83l-11.7 -0.94c-6.87,-6.87 -18.8,-29.64 -35.81,-68.34 -17.01,-38.7 -26.45,-62.41 -28.32,-71.15 -3.75,2.19 -18.57,5.46 -44.47,9.83 0.62,62.72 2.19,99.24 4.68,109.54zm580.29 11.23c-6.24,0 -11.86,-0.94 -16.85,-2.81l0 -14.05c0,-47.74 1.56,-117.02 4.68,-207.83l1.87 -45.4c-4.06,-5.31 -8.04,-13.66 -11.93,-25.04 -3.9,-11.39 -5.85,-18.41 -5.85,-21.07 0,-2.65 0.31,-4.29 0.94,-4.91 0.62,-0.62 8.51,-1.48 23.64,-2.57 15.13,-1.09 30.74,-1.64 46.81,-1.64 16.07,0 25.04,0.78 26.92,2.34 55.24,123.57 83.4,186.61 84.49,189.11 1.09,2.5 1.95,3.75 2.58,3.75l1.87 -3.28 0 -13.11c0,-26.52 -0.86,-59.6 -2.57,-99.24 -1.72,-39.63 -3.51,-64.28 -5.39,-73.96 4.37,-4.06 12.41,-7.57 24.11,-10.53 11.7,-2.96 22.31,-4.45 31.83,-4.45 9.52,0 14.28,0.78 14.28,2.34 0,6.24 -1.09,13.57 -3.28,22 -2.18,8.42 -3.27,12.79 -3.27,13.1 -2.19,14.05 -3.28,35.97 -3.28,65.77 0,29.8 0.08,51.26 0.23,64.37 0.16,13.11 0.31,25.67 0.47,37.68 0.16,12.01 0.39,23.87 0.7,35.58 0.31,11.7 0.47,22.39 0.47,32.06 0.62,20.6 0.94,34.95 0.94,43.07l0.47 6.55c0,0.94 -2.03,2.19 -6.09,3.75 -12.17,5 -28.55,7.49 -49.15,7.49l-17.32 -1.87c-12.48,-35.26 -30.74,-79.73 -54.77,-133.41 -24.03,-53.68 -37.45,-82.62 -40.26,-86.83 -2.81,-4.21 -4.52,-6.32 -5.15,-6.32l-1.4 3.27c-1.25,8.74 -1.87,27.54 -1.87,56.41 0,28.87 0.7,60.31 2.11,94.32 1.4,34.02 3.04,55.39 4.91,64.13 -8.43,7.49 -23.72,11.23 -45.87,11.23zm917.78 -166.17l-0.47 -6.56c8.74,0 17.32,1.48 25.75,4.45 8.43,2.97 14.67,5.85 18.72,8.66l6.55 4.21c0,42.44 -13.42,77.55 -40.26,105.32 8.74,12.17 18.57,22.63 29.49,31.36 0.31,0.31 0.47,0.62 0.47,0.94 0,3.12 -6.16,8.19 -18.49,15.22 -12.33,7.02 -23.02,10.53 -32.06,10.53 -10.61,-12.48 -18.1,-21.69 -22.47,-27.62 -19.97,11.55 -42.13,17.32 -66.47,17.32 -32.45,0 -58.83,-8.19 -79.11,-24.58 -20.28,-16.38 -30.43,-40.49 -30.43,-72.32 0,-47.75 23.09,-83.16 69.28,-106.26 -8.43,-22.16 -12.64,-40.41 -12.64,-54.77 0,-22.47 9.2,-39.55 27.62,-51.26 18.41,-11.7 39.63,-17.55 63.66,-17.55 15.92,0.94 24.5,2.03 25.75,3.28 4.68,9.05 7.02,21.22 7.02,36.51 0,2.81 -0.16,4.84 -0.47,6.09 -8.74,-1.25 -17.48,-1.87 -26.21,-1.87 -8.74,0 -17.48,2.34 -26.21,7.02 -8.74,4.68 -13.11,13.57 -13.11,26.68 0,13.11 8.27,37.14 24.81,72.09 16.54,34.95 33.08,64.28 49.62,88 6.55,-8.43 11.47,-20.05 14.74,-34.87 3.28,-14.82 4.91,-28.17 4.91,-40.02zm-154 62.26c0,15.29 4.6,28.16 13.81,38.62 9.2,10.45 22.55,15.68 40.02,15.68 17.47,0 30.89,-2.96 40.26,-8.89 -22.78,-34.33 -41.82,-68.03 -57.11,-101.11 -8.74,2.81 -16.85,8.58 -24.34,17.32 -8.43,10.3 -12.64,23.09 -12.64,38.39zm759.57 -68.81c69.9,-6.24 104.85,-28.55 104.85,-66.94 0,-12.48 -6.47,-22.23 -19.42,-29.25 -12.95,-7.02 -29.41,-10.53 -49.38,-10.53l-33.7 2.81c-1.56,11.24 -2.34,45.87 -2.34,103.92zm4.68 161.5c-3.43,3.43 -10.22,6.16 -20.36,8.19 -10.14,2.03 -18.8,3.04 -25.98,3.04 -7.18,0 -12.95,-0.94 -17.32,-2.81l2.81 -270.09c-4.37,-5 -8.5,-13.26 -12.4,-24.81 -3.9,-11.55 -5.85,-18.64 -5.85,-21.3 0,-2.65 0.39,-4.37 1.17,-5.15 0.78,-0.78 10.77,-1.71 29.96,-2.81 19.19,-1.09 38.54,-1.64 58.04,-1.64 19.51,0 36.9,1.09 52.19,3.28 15.29,2.19 30.97,6.16 47.04,11.94 16.07,5.77 28.87,14.67 38.39,26.68 9.52,12.01 14.28,27.38 14.28,46.11 0,18.72 -5.69,35.89 -17.09,51.49 -11.39,15.6 -25.2,27.46 -41.43,35.58 -33.7,17.16 -63.97,27.46 -90.81,30.89l-17.32 1.87c1.25,63.66 2.81,100.17 4.68,109.54zm624.29 -295.37l-2.81 192.86c0,24.03 0.47,41.82 1.4,53.36 5,1.25 13.03,1.87 24.11,1.87 11.08,0 20.59,-0.94 28.55,-2.81 7.96,-1.87 14.67,-5.23 20.13,-10.06 5.46,-4.84 9.91,-9.36 13.34,-13.57 3.43,-4.21 6.39,-10.53 8.89,-18.96 3.74,-11.24 7.49,-26.06 11.23,-44.47 0,-0.31 2.26,-0.47 6.79,-0.47 4.52,0 11.7,2.1 21.53,6.32 9.83,4.21 14.74,7.41 14.74,9.6 0,24.03 -1.25,51.18 -3.75,81.45 -2.5,33.7 -5.54,50.55 -9.13,50.55 -3.59,0 -10.53,-1.33 -20.83,-3.98 -10.3,-2.65 -18.1,-5.07 -23.4,-7.26 -28.08,4.68 -64.44,7.18 -109.06,7.49l-23.41 0.47 -18.72 -2.34c-1.25,-1.25 -1.87,-14.98 -1.87,-41.2l1.87 -179.28c0,-36.51 -0.86,-55.94 -2.57,-58.28 -1.72,-2.34 -4.6,-8.27 -8.66,-17.79 -4.06,-9.52 -6.09,-15.68 -6.09,-18.49 0,-1.25 3.43,-2.96 10.3,-5.15 17.16,-6.24 32.3,-9.36 45.4,-9.36 13.11,0 20.05,0.47 20.83,1.4 0.78,0.94 1.17,10.3 1.17,28.08zm687.48 187.71c-4.37,-0.31 -17.79,-0.47 -40.26,-0.47 -22.47,0 -35.58,0.62 -39.32,1.87 -16.54,54.3 -25.9,93.46 -28.09,117.49 0,0.31 -3.82,0.47 -11.47,0.47 -7.65,0 -15.53,-0.47 -23.64,-1.4 -17.16,-2.5 -25.74,-4.68 -25.74,-6.56 0,-12.48 11.08,-48.84 33.23,-109.06 -4.06,-3.43 -8.74,-10.53 -14.04,-21.3 -5.31,-10.76 -7.96,-19.74 -7.96,-26.92 0,-0.31 12.95,-0.94 38.85,-1.87 25.59,-74.27 40.1,-113.43 43.53,-117.49 1.25,-0.94 6.86,-2.42 16.85,-4.45 9.99,-2.03 16.38,-3.04 19.19,-3.04l-0.94 -6.09c-0.62,-4.37 -1.33,-9.13 -2.11,-14.28 -0.78,-5.15 -1.17,-8.5 -1.17,-10.06 0,-0.94 2.65,-2.81 7.96,-5.62 15.29,-7.49 31.05,-11.24 47.28,-11.24 3.12,18.41 7.26,41.9 12.41,70.45 5.15,28.55 15.21,72.16 30.19,130.83 14.98,58.67 29.33,99.55 43.06,122.64l3.28 5.62c0,1.56 -2.96,4.21 -8.89,7.96 -5.93,3.75 -13.73,7.33 -23.4,10.76 -9.68,3.43 -18.57,5.15 -26.68,5.15 -2.81,0 -9.6,-17.71 -20.36,-53.13 -10.76,-35.42 -18.02,-62.18 -21.77,-80.28zm-11.23 -48.21c-10.61,-44.94 -16.38,-70.06 -17.32,-75.36 -0.94,-5.31 -1.72,-7.96 -2.34,-7.96 -0.62,0 -1.4,0.62 -2.34,1.87 -2.81,5.31 -8.04,18.1 -15.68,38.39 -7.64,20.28 -12.56,34.33 -14.74,42.13 34.64,0 52.12,0.31 52.43,0.94zm530.67 167.11l1.4 -128.73 0 -6.08c-8.74,-12.17 -24.26,-38.3 -46.58,-78.41 -22.31,-40.1 -34.4,-61.4 -36.28,-63.89 -7.18,-7.18 -17.01,-10.76 -29.49,-10.76 -0.31,-0.62 -0.47,-2.34 -0.47,-5.15 0,-2.81 1.01,-7.25 3.04,-13.34 2.03,-6.08 3.43,-9.51 4.21,-10.3 0.78,-0.78 3.67,-1.64 8.66,-2.57 13.42,-2.5 26.99,-3.75 40.72,-3.75 13.73,0 20.99,0.31 21.77,0.94 0.78,0.62 5.07,9.2 12.87,25.75 24.34,51.8 42.28,86.44 53.83,103.92l0.94 0c1.87,-6.87 15.22,-31.67 40.02,-74.43 24.81,-42.75 39.24,-64.13 43.3,-64.13 9.36,0 18.72,1.25 28.08,3.75 9.36,2.5 16.7,5.23 22,8.19 5.31,2.96 7.8,5.38 7.49,7.25 -16.54,18.41 -38.46,47.98 -65.77,88.7 -27.31,40.72 -43.45,70.14 -48.45,88.24 -0.62,6.24 -0.94,26.37 -0.94,60.38 0,34.02 1.25,56.33 3.75,66.94 0,3.75 -5,6.56 -14.98,8.43 -9.99,1.87 -19.74,2.81 -29.26,2.81 -9.52,0 -16.15,-1.25 -19.89,-3.75z"/>
  </g>
 </g>
</svg>
